ISO-10303-21;
HEADER;
/* Generated by software containing ST-Developer
 * from STEP Tools, Inc. (www.steptools.com) 
 */
/* OPTION: using custom renumber hook */

FILE_DESCRIPTION(
/* description */ ('STEP AP242 Edition 2',
'CAx-IF Rec.Pracs.---Representation and Presentation of Product Manufa
cturing Information (PMI)---4.0---2014-10-13',
'CAx-IF Rec.Pracs.---3D Tessellated Geometry---0.4---2014-09-14','2;1',
'CAx-IF Rec.Pracs.---User Defined Attributes---1.5---2016-08-15'),
/* implementation_level */ '2;1');

FILE_NAME(
/* name */ '6a6e29eeec8fa645f2085622',
/* time_stamp */ '2026-08-01T17:17:41Z',
/* author */ (''),
/* organization */ (''),
/* preprocessor_version */ 'ST-DEVELOPER v20',
/* originating_system */ 'ONSHAPE BY PTC INC, 1.218',
/* authorisation */ '  ');

FILE_SCHEMA (('AP242_MANAGED_MODEL_BASED_3D_ENGINEERING_MIM_LF { 1 0 10303 442 3 1 4 }'));
ENDSEC;

DATA;
#10=DRAUGHTING_PRE_DEFINED_COLOUR('black');
#11=B_SPLINE_CURVE_WITH_KNOTS('',3,(#1636,#1637,#1638,#1639),
 .UNSPECIFIED.,.F.,.F.,(4,4),(0.0363495111006116,0.999999788338404),
 .UNSPECIFIED.);
#12=B_SPLINE_CURVE_WITH_KNOTS('',3,(#1642,#1643,#1644,#1645),
 .UNSPECIFIED.,.F.,.F.,(4,4),(0.,0.000999806610300603),.UNSPECIFIED.);
#13=B_SPLINE_CURVE_WITH_KNOTS('',3,(#1647,#1648,#1649,#1650),
 .UNSPECIFIED.,.F.,.F.,(4,4),(7.15368601704127E-8,0.963651133148831),
 .UNSPECIFIED.);
#14=B_SPLINE_CURVE_WITH_KNOTS('',3,(#1654,#1655,#1656,#1657),
 .UNSPECIFIED.,.F.,.F.,(4,4),(0.0363495111008365,0.999999788338403),
 .UNSPECIFIED.);
#15=B_SPLINE_CURVE_WITH_KNOTS('',3,(#1659,#1660,#1661,#1662),
 .UNSPECIFIED.,.F.,.F.,(4,4),(0.,0.000999806610373894),.UNSPECIFIED.);
#16=B_SPLINE_CURVE_WITH_KNOTS('',3,(#1664,#1665,#1666,#1667),
 .UNSPECIFIED.,.F.,.F.,(4,4),(7.15344269858979E-8,0.963651201582752),
 .UNSPECIFIED.);
#17=B_SPLINE_CURVE_WITH_KNOTS('',3,(#1671,#1672,#1673,#1674),
 .UNSPECIFIED.,.F.,.F.,(4,4),(0.0363495111003648,0.999999788338401),
 .UNSPECIFIED.);
#18=B_SPLINE_CURVE_WITH_KNOTS('',3,(#1676,#1677,#1678,#1679),
 .UNSPECIFIED.,.F.,.F.,(4,4),(0.,0.000999806610374699),.UNSPECIFIED.);
#19=B_SPLINE_CURVE_WITH_KNOTS('',3,(#1681,#1682,#1683,#1684),
 .UNSPECIFIED.,.F.,.F.,(4,4),(7.15351807778755E-8,0.963651201582559),
 .UNSPECIFIED.);
#20=B_SPLINE_CURVE_WITH_KNOTS('',3,(#1688,#1689,#1690,#1691),
 .UNSPECIFIED.,.F.,.F.,(4,4),(0.0363495111005256,0.999999788338402),
 .UNSPECIFIED.);
#21=B_SPLINE_CURVE_WITH_KNOTS('',3,(#1693,#1694,#1695,#1696),
 .UNSPECIFIED.,.F.,.F.,(4,4),(0.,0.000999375641735734),.UNSPECIFIED.);
#22=B_SPLINE_CURVE_WITH_KNOTS('',3,(#1698,#1699,#1700,#1701),
 .UNSPECIFIED.,.F.,.F.,(4,4),(7.15351507260808E-8,0.963651201582559),
 .UNSPECIFIED.);
#23=B_SPLINE_CURVE_WITH_KNOTS('',3,(#1705,#1706,#1707,#1708),
 .UNSPECIFIED.,.F.,.F.,(4,4),(-2.48010179369775,-1.81768693520255),
 .UNSPECIFIED.);
#24=B_SPLINE_CURVE_WITH_KNOTS('',3,(#1710,#1711,#1712,#1713),
 .UNSPECIFIED.,.F.,.F.,(4,4),(1.81768693520846,2.48010176011731),
 .UNSPECIFIED.);
#25=B_SPLINE_CURVE_WITH_KNOTS('',3,(#1725,#1726,#1727,#1728),
 .UNSPECIFIED.,.F.,.F.,(4,4),(1.8176869350592,2.48010176004215),
 .UNSPECIFIED.);
#26=B_SPLINE_CURVE_WITH_KNOTS('',3,(#1732,#1733,#1734,#1735),
 .UNSPECIFIED.,.F.,.F.,(4,4),(-2.48010179370827,-1.81768693521351),
 .UNSPECIFIED.);
#27=B_SPLINE_CURVE_WITH_KNOTS('',3,(#1747,#1748,#1749,#1750),
 .UNSPECIFIED.,.F.,.F.,(4,4),(1.81768693520846,2.48010176011812),
 .UNSPECIFIED.);
#28=B_SPLINE_CURVE_WITH_KNOTS('',3,(#1756,#1757,#1758,#1759),
 .UNSPECIFIED.,.F.,.F.,(4,4),(-2.48010179370301,-1.81768693520846),
 .UNSPECIFIED.);
#29=B_SPLINE_CURVE_WITH_KNOTS('',3,(#1769,#1770,#1771,#1772),
 .UNSPECIFIED.,.F.,.F.,(4,4),(1.81768693520846,2.48010176011729),
 .UNSPECIFIED.);
#30=B_SPLINE_CURVE_WITH_KNOTS('',3,(#1778,#1779,#1780,#1781),
 .UNSPECIFIED.,.F.,.F.,(4,4),(-2.48010179370301,-1.81768693520846),
 .UNSPECIFIED.);
#31=B_SPLINE_SURFACE_WITH_KNOTS('',3,3,((#1581,#1582,#1583,#1584,#1585,
#1586,#1587,#1588,#1589,#1590,#1591),(#1592,#1593,#1594,#1595,#1596,#1597,
#1598,#1599,#1600,#1601,#1602),(#1603,#1604,#1605,#1606,#1607,#1608,#1609,
#1610,#1611,#1612,#1613),(#1614,#1615,#1616,#1617,#1618,#1619,#1620,#1621,
#1622,#1623,#1624),(#1625,#1626,#1627,#1628,#1629,#1630,#1631,#1632,#1633,
#1634,#1635)),.UNSPECIFIED.,.F.,.T.,.F.,(4,1,4),(1,1,1,1,1,1,1,1,1,1,1,
1,1,1,1),(0.0947566208363076,0.547378310418154,1.),(-2.35619449019234,-1.5707963267949,
-0.785398163397448,0.,0.785398163397448,1.5707963267949,2.35619449019234,
3.14159265358979,3.92699081698724,4.71238898038469,5.49778714378214,6.28318530717959,
7.06858347057703,7.85398163397448,8.63937979737193),.UNSPECIFIED.);
#32=CONICAL_SURFACE('',#1147,0.0016,0.785398163397);
#33=CONICAL_SURFACE('',#1159,0.001185,0.419522548434);
#34=CONICAL_SURFACE('',#1165,0.001185,0.419522548434);
#35=CONICAL_SURFACE('',#1171,0.001185,0.419522548434);
#36=CONICAL_SURFACE('',#1177,0.001185,0.419522548434);
#37=CONTEXT_DEPENDENT_SHAPE_REPRESENTATION(#51,#1949);
#38=CONTEXT_DEPENDENT_SHAPE_REPRESENTATION(#52,#1951);
#39=CONTEXT_DEPENDENT_SHAPE_REPRESENTATION(#53,#1953);
#40=CONTEXT_DEPENDENT_SHAPE_REPRESENTATION(#54,#1955);
#41=CONTEXT_DEPENDENT_SHAPE_REPRESENTATION(#55,#1956);
#42=CONTEXT_DEPENDENT_SHAPE_REPRESENTATION(#56,#1957);
#43=CONTEXT_DEPENDENT_SHAPE_REPRESENTATION(#57,#1958);
#44=NEXT_ASSEMBLY_USAGE_OCCURRENCE('NAUO1','Part 1','Part 1',#1959,#1960,
'');
#45=NEXT_ASSEMBLY_USAGE_OCCURRENCE('NAUO2','Part 1','Part 1',#1959,#1961,
'');
#46=NEXT_ASSEMBLY_USAGE_OCCURRENCE('NAUO3','Part 1','Part 1',#1959,#1962,
'');
#47=NEXT_ASSEMBLY_USAGE_OCCURRENCE('NAUO4','Part 1','Part 1',#1959,#1963,
'');
#48=NEXT_ASSEMBLY_USAGE_OCCURRENCE('NAUO5','Part 1','Part 1',#1959,#1961,
'');
#49=NEXT_ASSEMBLY_USAGE_OCCURRENCE('NAUO6','Part 1','Part 1',#1959,#1961,
'');
#50=NEXT_ASSEMBLY_USAGE_OCCURRENCE('NAUO7','Part 1','Part 1',#1959,#1961,
'');
#51=(
REPRESENTATION_RELATIONSHIP(' ',' ',#1121,#1120)
REPRESENTATION_RELATIONSHIP_WITH_TRANSFORMATION(#58)
SHAPE_REPRESENTATION_RELATIONSHIP()
);
#52=(
REPRESENTATION_RELATIONSHIP(' ',' ',#1122,#1120)
REPRESENTATION_RELATIONSHIP_WITH_TRANSFORMATION(#59)
SHAPE_REPRESENTATION_RELATIONSHIP()
);
#53=(
REPRESENTATION_RELATIONSHIP(' ',' ',#1123,#1120)
REPRESENTATION_RELATIONSHIP_WITH_TRANSFORMATION(#60)
SHAPE_REPRESENTATION_RELATIONSHIP()
);
#54=(
REPRESENTATION_RELATIONSHIP(' ',' ',#1124,#1120)
REPRESENTATION_RELATIONSHIP_WITH_TRANSFORMATION(#61)
SHAPE_REPRESENTATION_RELATIONSHIP()
);
#55=(
REPRESENTATION_RELATIONSHIP(' ',' ',#1122,#1120)
REPRESENTATION_RELATIONSHIP_WITH_TRANSFORMATION(#62)
SHAPE_REPRESENTATION_RELATIONSHIP()
);
#56=(
REPRESENTATION_RELATIONSHIP(' ',' ',#1122,#1120)
REPRESENTATION_RELATIONSHIP_WITH_TRANSFORMATION(#63)
SHAPE_REPRESENTATION_RELATIONSHIP()
);
#57=(
REPRESENTATION_RELATIONSHIP(' ',' ',#1122,#1120)
REPRESENTATION_RELATIONSHIP_WITH_TRANSFORMATION(#64)
SHAPE_REPRESENTATION_RELATIONSHIP()
);
#58=ITEM_DEFINED_TRANSFORMATION(' ',' ',#1125,#1144);
#59=ITEM_DEFINED_TRANSFORMATION(' ',' ',#1125,#1184);
#60=ITEM_DEFINED_TRANSFORMATION(' ',' ',#1125,#1191);
#61=ITEM_DEFINED_TRANSFORMATION(' ',' ',#1125,#1226);
#62=ITEM_DEFINED_TRANSFORMATION(' ',' ',#1125,#1227);
#63=ITEM_DEFINED_TRANSFORMATION(' ',' ',#1125,#1228);
#64=ITEM_DEFINED_TRANSFORMATION(' ',' ',#1125,#1229);
#65=SHAPE_REPRESENTATION_RELATIONSHIP('','',#1121,#69);
#66=SHAPE_REPRESENTATION_RELATIONSHIP('','',#1122,#70);
#67=SHAPE_REPRESENTATION_RELATIONSHIP('','',#1123,#71);
#68=SHAPE_REPRESENTATION_RELATIONSHIP('','',#1124,#72);
#69=ADVANCED_BREP_SHAPE_REPRESENTATION('',(#1111),#1935);
#70=ADVANCED_BREP_SHAPE_REPRESENTATION('',(#1112),#1936);
#71=ADVANCED_BREP_SHAPE_REPRESENTATION('',(#1113),#1937);
#72=ADVANCED_BREP_SHAPE_REPRESENTATION('',(#1114),#1938);
#73=CYLINDRICAL_SURFACE('',#1140,0.00225);
#74=CYLINDRICAL_SURFACE('',#1141,0.00225);
#75=CYLINDRICAL_SURFACE('',#1142,0.00225);
#76=CYLINDRICAL_SURFACE('',#1143,0.00225);
#77=CYLINDRICAL_SURFACE('',#1149,0.002);
#78=CYLINDRICAL_SURFACE('',#1153,0.004);
#79=CYLINDRICAL_SURFACE('',#1162,0.000639999999952);
#80=CYLINDRICAL_SURFACE('',#1168,0.000640000000002);
#81=CYLINDRICAL_SURFACE('',#1174,0.00064);
#82=CYLINDRICAL_SURFACE('',#1180,0.00064);
#83=CYLINDRICAL_SURFACE('',#1208,0.00225);
#84=CYLINDRICAL_SURFACE('',#1209,0.00225);
#85=CYLINDRICAL_SURFACE('',#1210,0.00225);
#86=CYLINDRICAL_SURFACE('',#1211,0.00225);
#87=CYLINDRICAL_SURFACE('',#1224,0.0325);
#88=CYLINDRICAL_SURFACE('',#1225,0.0325);
#89=CIRCLE('',#1131,0.00225);
#90=CIRCLE('',#1132,0.00225);
#91=CIRCLE('',#1133,0.00225);
#92=CIRCLE('',#1134,0.00225);
#93=CIRCLE('',#1136,0.00225);
#94=CIRCLE('',#1137,0.00225);
#95=CIRCLE('',#1138,0.00225);
#96=CIRCLE('',#1139,0.00225);
#97=CIRCLE('',#1146,0.0016);
#98=CIRCLE('',#1148,0.002);
#99=CIRCLE('',#1150,0.002);
#100=CIRCLE('',#1152,0.004);
#101=CIRCLE('',#1154,0.004);
#102=CIRCLE('',#1155,0.00225491529813131);
#103=CIRCLE('',#1156,0.00225491529813457);
#104=CIRCLE('',#1157,0.00225491529813201);
#105=CIRCLE('',#1158,0.0022549152981321);
#106=CIRCLE('',#1160,0.001185);
#107=CIRCLE('',#1163,0.000639999999952);
#108=CIRCLE('',#1166,0.00118499999999951);
#109=CIRCLE('',#1169,0.000640000000002);
#110=CIRCLE('',#1172,0.00118499999999956);
#111=CIRCLE('',#1175,0.00064);
#112=CIRCLE('',#1178,0.00118500000000015);
#113=CIRCLE('',#1181,0.00064);
#114=CIRCLE('',#1194,0.00225);
#115=CIRCLE('',#1195,0.00225);
#116=CIRCLE('',#1196,0.00225);
#117=CIRCLE('',#1197,0.00225);
#118=CIRCLE('',#1203,0.0325);
#119=CIRCLE('',#1204,0.00225);
#120=CIRCLE('',#1205,0.00225);
#121=CIRCLE('',#1206,0.00225);
#122=CIRCLE('',#1207,0.00225);
#123=CIRCLE('',#1216,0.0325);
#124=CIRCLE('',#1219,0.0325);
#125=CIRCLE('',#1222,0.0325);
#126=ORIENTED_EDGE('',*,*,#396,.F.);
#127=ORIENTED_EDGE('',*,*,#397,.F.);
#128=ORIENTED_EDGE('',*,*,#398,.T.);
#129=ORIENTED_EDGE('',*,*,#399,.T.);
#130=ORIENTED_EDGE('',*,*,#400,.T.);
#131=ORIENTED_EDGE('',*,*,#401,.F.);
#132=ORIENTED_EDGE('',*,*,#402,.F.);
#133=ORIENTED_EDGE('',*,*,#397,.T.);
#134=ORIENTED_EDGE('',*,*,#403,.T.);
#135=ORIENTED_EDGE('',*,*,#404,.F.);
#136=ORIENTED_EDGE('',*,*,#405,.F.);
#137=ORIENTED_EDGE('',*,*,#401,.T.);
#138=ORIENTED_EDGE('',*,*,#406,.F.);
#139=ORIENTED_EDGE('',*,*,#399,.F.);
#140=ORIENTED_EDGE('',*,*,#407,.T.);
#141=ORIENTED_EDGE('',*,*,#404,.T.);
#142=ORIENTED_EDGE('',*,*,#408,.F.);
#143=ORIENTED_EDGE('',*,*,#409,.F.);
#144=ORIENTED_EDGE('',*,*,#410,.F.);
#145=ORIENTED_EDGE('',*,*,#411,.F.);
#146=ORIENTED_EDGE('',*,*,#398,.F.);
#147=ORIENTED_EDGE('',*,*,#402,.T.);
#148=ORIENTED_EDGE('',*,*,#405,.T.);
#149=ORIENTED_EDGE('',*,*,#407,.F.);
#150=ORIENTED_EDGE('',*,*,#412,.T.);
#151=ORIENTED_EDGE('',*,*,#413,.T.);
#152=ORIENTED_EDGE('',*,*,#414,.T.);
#153=ORIENTED_EDGE('',*,*,#415,.T.);
#154=ORIENTED_EDGE('',*,*,#396,.T.);
#155=ORIENTED_EDGE('',*,*,#406,.T.);
#156=ORIENTED_EDGE('',*,*,#403,.F.);
#157=ORIENTED_EDGE('',*,*,#400,.F.);
#158=ORIENTED_EDGE('',*,*,#411,.T.);
#159=ORIENTED_EDGE('',*,*,#415,.F.);
#160=ORIENTED_EDGE('',*,*,#410,.T.);
#161=ORIENTED_EDGE('',*,*,#414,.F.);
#162=ORIENTED_EDGE('',*,*,#409,.T.);
#163=ORIENTED_EDGE('',*,*,#413,.F.);
#164=ORIENTED_EDGE('',*,*,#408,.T.);
#165=ORIENTED_EDGE('',*,*,#412,.F.);
#166=ORIENTED_EDGE('',*,*,#416,.F.);
#167=ORIENTED_EDGE('',*,*,#417,.F.);
#168=ORIENTED_EDGE('',*,*,#416,.T.);
#169=ORIENTED_EDGE('',*,*,#418,.F.);
#170=ORIENTED_EDGE('',*,*,#417,.T.);
#171=ORIENTED_EDGE('',*,*,#418,.T.);
#172=ORIENTED_EDGE('',*,*,#419,.F.);
#173=ORIENTED_EDGE('',*,*,#420,.F.);
#174=ORIENTED_EDGE('',*,*,#419,.T.);
#175=ORIENTED_EDGE('',*,*,#420,.T.);
#176=ORIENTED_EDGE('',*,*,#421,.T.);
#177=ORIENTED_EDGE('',*,*,#422,.T.);
#178=ORIENTED_EDGE('',*,*,#423,.T.);
#179=ORIENTED_EDGE('',*,*,#424,.T.);
#180=ORIENTED_EDGE('',*,*,#425,.T.);
#181=ORIENTED_EDGE('',*,*,#426,.T.);
#182=ORIENTED_EDGE('',*,*,#427,.T.);
#183=ORIENTED_EDGE('',*,*,#428,.T.);
#184=ORIENTED_EDGE('',*,*,#429,.T.);
#185=ORIENTED_EDGE('',*,*,#430,.T.);
#186=ORIENTED_EDGE('',*,*,#431,.T.);
#187=ORIENTED_EDGE('',*,*,#432,.T.);
#188=ORIENTED_EDGE('',*,*,#433,.T.);
#189=ORIENTED_EDGE('',*,*,#434,.T.);
#190=ORIENTED_EDGE('',*,*,#435,.T.);
#191=ORIENTED_EDGE('',*,*,#436,.T.);
#192=ORIENTED_EDGE('',*,*,#437,.F.);
#193=ORIENTED_EDGE('',*,*,#436,.F.);
#194=ORIENTED_EDGE('',*,*,#438,.F.);
#195=ORIENTED_EDGE('',*,*,#439,.F.);
#196=ORIENTED_EDGE('',*,*,#440,.T.);
#197=ORIENTED_EDGE('',*,*,#421,.F.);
#198=ORIENTED_EDGE('',*,*,#437,.T.);
#199=ORIENTED_EDGE('',*,*,#441,.T.);
#200=ORIENTED_EDGE('',*,*,#442,.T.);
#201=ORIENTED_EDGE('',*,*,#422,.F.);
#202=ORIENTED_EDGE('',*,*,#440,.F.);
#203=ORIENTED_EDGE('',*,*,#443,.T.);
#204=ORIENTED_EDGE('',*,*,#444,.T.);
#205=ORIENTED_EDGE('',*,*,#423,.F.);
#206=ORIENTED_EDGE('',*,*,#442,.F.);
#207=ORIENTED_EDGE('',*,*,#445,.T.);
#208=ORIENTED_EDGE('',*,*,#446,.F.);
#209=ORIENTED_EDGE('',*,*,#424,.F.);
#210=ORIENTED_EDGE('',*,*,#444,.F.);
#211=ORIENTED_EDGE('',*,*,#447,.F.);
#212=ORIENTED_EDGE('',*,*,#448,.T.);
#213=ORIENTED_EDGE('',*,*,#425,.F.);
#214=ORIENTED_EDGE('',*,*,#446,.T.);
#215=ORIENTED_EDGE('',*,*,#449,.T.);
#216=ORIENTED_EDGE('',*,*,#450,.T.);
#217=ORIENTED_EDGE('',*,*,#426,.F.);
#218=ORIENTED_EDGE('',*,*,#448,.F.);
#219=ORIENTED_EDGE('',*,*,#451,.T.);
#220=ORIENTED_EDGE('',*,*,#452,.T.);
#221=ORIENTED_EDGE('',*,*,#427,.F.);
#222=ORIENTED_EDGE('',*,*,#450,.F.);
#223=ORIENTED_EDGE('',*,*,#453,.T.);
#224=ORIENTED_EDGE('',*,*,#452,.F.);
#225=ORIENTED_EDGE('',*,*,#454,.F.);
#226=ORIENTED_EDGE('',*,*,#455,.F.);
#227=ORIENTED_EDGE('',*,*,#428,.F.);
#228=ORIENTED_EDGE('',*,*,#456,.T.);
#229=ORIENTED_EDGE('',*,*,#429,.F.);
#230=ORIENTED_EDGE('',*,*,#455,.T.);
#231=ORIENTED_EDGE('',*,*,#457,.T.);
#232=ORIENTED_EDGE('',*,*,#458,.T.);
#233=ORIENTED_EDGE('',*,*,#430,.F.);
#234=ORIENTED_EDGE('',*,*,#456,.F.);
#235=ORIENTED_EDGE('',*,*,#459,.T.);
#236=ORIENTED_EDGE('',*,*,#460,.T.);
#237=ORIENTED_EDGE('',*,*,#431,.F.);
#238=ORIENTED_EDGE('',*,*,#458,.F.);
#239=ORIENTED_EDGE('',*,*,#461,.T.);
#240=ORIENTED_EDGE('',*,*,#460,.F.);
#241=ORIENTED_EDGE('',*,*,#462,.F.);
#242=ORIENTED_EDGE('',*,*,#463,.F.);
#243=ORIENTED_EDGE('',*,*,#432,.F.);
#244=ORIENTED_EDGE('',*,*,#464,.T.);
#245=ORIENTED_EDGE('',*,*,#433,.F.);
#246=ORIENTED_EDGE('',*,*,#463,.T.);
#247=ORIENTED_EDGE('',*,*,#465,.T.);
#248=ORIENTED_EDGE('',*,*,#466,.T.);
#249=ORIENTED_EDGE('',*,*,#434,.F.);
#250=ORIENTED_EDGE('',*,*,#464,.F.);
#251=ORIENTED_EDGE('',*,*,#467,.T.);
#252=ORIENTED_EDGE('',*,*,#438,.T.);
#253=ORIENTED_EDGE('',*,*,#435,.F.);
#254=ORIENTED_EDGE('',*,*,#466,.F.);
#255=ORIENTED_EDGE('',*,*,#468,.T.);
#256=ORIENTED_EDGE('',*,*,#439,.T.);
#257=ORIENTED_EDGE('',*,*,#468,.F.);
#258=ORIENTED_EDGE('',*,*,#467,.F.);
#259=ORIENTED_EDGE('',*,*,#465,.F.);
#260=ORIENTED_EDGE('',*,*,#462,.T.);
#261=ORIENTED_EDGE('',*,*,#461,.F.);
#262=ORIENTED_EDGE('',*,*,#459,.F.);
#263=ORIENTED_EDGE('',*,*,#457,.F.);
#264=ORIENTED_EDGE('',*,*,#454,.T.);
#265=ORIENTED_EDGE('',*,*,#453,.F.);
#266=ORIENTED_EDGE('',*,*,#451,.F.);
#267=ORIENTED_EDGE('',*,*,#449,.F.);
#268=ORIENTED_EDGE('',*,*,#447,.T.);
#269=ORIENTED_EDGE('',*,*,#445,.F.);
#270=ORIENTED_EDGE('',*,*,#443,.F.);
#271=ORIENTED_EDGE('',*,*,#441,.F.);
#272=ORIENTED_EDGE('',*,*,#469,.F.);
#273=ORIENTED_EDGE('',*,*,#470,.F.);
#274=ORIENTED_EDGE('',*,*,#471,.T.);
#275=ORIENTED_EDGE('',*,*,#472,.T.);
#276=ORIENTED_EDGE('',*,*,#473,.T.);
#277=ORIENTED_EDGE('',*,*,#474,.F.);
#278=ORIENTED_EDGE('',*,*,#475,.F.);
#279=ORIENTED_EDGE('',*,*,#470,.T.);
#280=ORIENTED_EDGE('',*,*,#476,.T.);
#281=ORIENTED_EDGE('',*,*,#477,.F.);
#282=ORIENTED_EDGE('',*,*,#478,.F.);
#283=ORIENTED_EDGE('',*,*,#474,.T.);
#284=ORIENTED_EDGE('',*,*,#479,.F.);
#285=ORIENTED_EDGE('',*,*,#472,.F.);
#286=ORIENTED_EDGE('',*,*,#480,.T.);
#287=ORIENTED_EDGE('',*,*,#477,.T.);
#288=ORIENTED_EDGE('',*,*,#471,.F.);
#289=ORIENTED_EDGE('',*,*,#475,.T.);
#290=ORIENTED_EDGE('',*,*,#478,.T.);
#291=ORIENTED_EDGE('',*,*,#480,.F.);
#292=ORIENTED_EDGE('',*,*,#469,.T.);
#293=ORIENTED_EDGE('',*,*,#479,.T.);
#294=ORIENTED_EDGE('',*,*,#476,.F.);
#295=ORIENTED_EDGE('',*,*,#473,.F.);
#296=ORIENTED_EDGE('',*,*,#481,.T.);
#297=ORIENTED_EDGE('',*,*,#482,.F.);
#298=ORIENTED_EDGE('',*,*,#483,.F.);
#299=ORIENTED_EDGE('',*,*,#484,.T.);
#300=ORIENTED_EDGE('',*,*,#485,.T.);
#301=ORIENTED_EDGE('',*,*,#486,.T.);
#302=ORIENTED_EDGE('',*,*,#487,.F.);
#303=ORIENTED_EDGE('',*,*,#488,.F.);
#304=ORIENTED_EDGE('',*,*,#489,.F.);
#305=ORIENTED_EDGE('',*,*,#490,.F.);
#306=ORIENTED_EDGE('',*,*,#491,.F.);
#307=ORIENTED_EDGE('',*,*,#492,.F.);
#308=ORIENTED_EDGE('',*,*,#493,.F.);
#309=ORIENTED_EDGE('',*,*,#494,.T.);
#310=ORIENTED_EDGE('',*,*,#495,.T.);
#311=ORIENTED_EDGE('',*,*,#496,.F.);
#312=ORIENTED_EDGE('',*,*,#481,.F.);
#313=ORIENTED_EDGE('',*,*,#497,.T.);
#314=ORIENTED_EDGE('',*,*,#498,.T.);
#315=ORIENTED_EDGE('',*,*,#499,.F.);
#316=ORIENTED_EDGE('',*,*,#500,.F.);
#317=ORIENTED_EDGE('',*,*,#501,.F.);
#318=ORIENTED_EDGE('',*,*,#493,.T.);
#319=ORIENTED_EDGE('',*,*,#502,.T.);
#320=ORIENTED_EDGE('',*,*,#503,.T.);
#321=ORIENTED_EDGE('',*,*,#504,.F.);
#322=ORIENTED_EDGE('',*,*,#494,.F.);
#323=ORIENTED_EDGE('',*,*,#501,.T.);
#324=ORIENTED_EDGE('',*,*,#505,.T.);
#325=ORIENTED_EDGE('',*,*,#506,.F.);
#326=ORIENTED_EDGE('',*,*,#495,.F.);
#327=ORIENTED_EDGE('',*,*,#504,.T.);
#328=ORIENTED_EDGE('',*,*,#507,.F.);
#329=ORIENTED_EDGE('',*,*,#502,.F.);
#330=ORIENTED_EDGE('',*,*,#496,.T.);
#331=ORIENTED_EDGE('',*,*,#506,.T.);
#332=ORIENTED_EDGE('',*,*,#508,.F.);
#333=ORIENTED_EDGE('',*,*,#509,.T.);
#334=ORIENTED_EDGE('',*,*,#510,.T.);
#335=ORIENTED_EDGE('',*,*,#511,.T.);
#336=ORIENTED_EDGE('',*,*,#512,.T.);
#337=ORIENTED_EDGE('',*,*,#500,.T.);
#338=ORIENTED_EDGE('',*,*,#507,.T.);
#339=ORIENTED_EDGE('',*,*,#505,.F.);
#340=ORIENTED_EDGE('',*,*,#503,.F.);
#341=ORIENTED_EDGE('',*,*,#492,.T.);
#342=ORIENTED_EDGE('',*,*,#512,.F.);
#343=ORIENTED_EDGE('',*,*,#491,.T.);
#344=ORIENTED_EDGE('',*,*,#511,.F.);
#345=ORIENTED_EDGE('',*,*,#490,.T.);
#346=ORIENTED_EDGE('',*,*,#510,.F.);
#347=ORIENTED_EDGE('',*,*,#489,.T.);
#348=ORIENTED_EDGE('',*,*,#509,.F.);
#349=ORIENTED_EDGE('',*,*,#497,.F.);
#350=ORIENTED_EDGE('',*,*,#484,.F.);
#351=ORIENTED_EDGE('',*,*,#513,.T.);
#352=ORIENTED_EDGE('',*,*,#514,.T.);
#353=ORIENTED_EDGE('',*,*,#499,.T.);
#354=ORIENTED_EDGE('',*,*,#515,.F.);
#355=ORIENTED_EDGE('',*,*,#516,.F.);
#356=ORIENTED_EDGE('',*,*,#482,.T.);
#357=ORIENTED_EDGE('',*,*,#498,.F.);
#358=ORIENTED_EDGE('',*,*,#514,.F.);
#359=ORIENTED_EDGE('',*,*,#517,.T.);
#360=ORIENTED_EDGE('',*,*,#515,.T.);
#361=ORIENTED_EDGE('',*,*,#518,.F.);
#362=ORIENTED_EDGE('',*,*,#513,.F.);
#363=ORIENTED_EDGE('',*,*,#483,.T.);
#364=ORIENTED_EDGE('',*,*,#516,.T.);
#365=ORIENTED_EDGE('',*,*,#517,.F.);
#366=ORIENTED_EDGE('',*,*,#485,.F.);
#367=ORIENTED_EDGE('',*,*,#519,.F.);
#368=ORIENTED_EDGE('',*,*,#520,.T.);
#369=ORIENTED_EDGE('',*,*,#521,.T.);
#370=ORIENTED_EDGE('',*,*,#522,.F.);
#371=ORIENTED_EDGE('',*,*,#523,.T.);
#372=ORIENTED_EDGE('',*,*,#524,.F.);
#373=ORIENTED_EDGE('',*,*,#519,.T.);
#374=ORIENTED_EDGE('',*,*,#488,.T.);
#375=ORIENTED_EDGE('',*,*,#525,.F.);
#376=ORIENTED_EDGE('',*,*,#487,.T.);
#377=ORIENTED_EDGE('',*,*,#526,.F.);
#378=ORIENTED_EDGE('',*,*,#527,.F.);
#379=ORIENTED_EDGE('',*,*,#525,.T.);
#380=ORIENTED_EDGE('',*,*,#528,.T.);
#381=ORIENTED_EDGE('',*,*,#529,.F.);
#382=ORIENTED_EDGE('',*,*,#530,.T.);
#383=ORIENTED_EDGE('',*,*,#526,.T.);
#384=ORIENTED_EDGE('',*,*,#486,.F.);
#385=ORIENTED_EDGE('',*,*,#521,.F.);
#386=ORIENTED_EDGE('',*,*,#530,.F.);
#387=ORIENTED_EDGE('',*,*,#528,.F.);
#388=ORIENTED_EDGE('',*,*,#520,.F.);
#389=ORIENTED_EDGE('',*,*,#524,.T.);
#390=ORIENTED_EDGE('',*,*,#522,.T.);
#391=ORIENTED_EDGE('',*,*,#527,.T.);
#392=ORIENTED_EDGE('',*,*,#529,.T.);
#393=ORIENTED_EDGE('',*,*,#508,.T.);
#394=ORIENTED_EDGE('',*,*,#518,.T.);
#395=ORIENTED_EDGE('',*,*,#523,.F.);
#396=EDGE_CURVE('',#531,#532,#628,.T.);
#397=EDGE_CURVE('',#533,#531,#629,.T.);
#398=EDGE_CURVE('',#533,#534,#630,.T.);
#399=EDGE_CURVE('',#534,#532,#631,.T.);
#400=EDGE_CURVE('',#531,#535,#632,.T.);
#401=EDGE_CURVE('',#536,#535,#633,.T.);
#402=EDGE_CURVE('',#533,#536,#634,.T.);
#403=EDGE_CURVE('',#535,#537,#635,.T.);
#404=EDGE_CURVE('',#538,#537,#636,.T.);
#405=EDGE_CURVE('',#536,#538,#637,.T.);
#406=EDGE_CURVE('',#532,#537,#638,.T.);
#407=EDGE_CURVE('',#534,#538,#639,.T.);
#408=EDGE_CURVE('',#539,#539,#89,.T.);
#409=EDGE_CURVE('',#540,#540,#90,.T.);
#410=EDGE_CURVE('',#541,#541,#91,.T.);
#411=EDGE_CURVE('',#542,#542,#92,.T.);
#412=EDGE_CURVE('',#543,#543,#93,.T.);
#413=EDGE_CURVE('',#544,#544,#94,.T.);
#414=EDGE_CURVE('',#545,#545,#95,.T.);
#415=EDGE_CURVE('',#546,#546,#96,.T.);
#416=EDGE_CURVE('',#547,#547,#97,.T.);
#417=EDGE_CURVE('',#548,#548,#98,.T.);
#418=EDGE_CURVE('',#549,#549,#99,.T.);
#419=EDGE_CURVE('',#550,#550,#100,.T.);
#420=EDGE_CURVE('',#551,#551,#101,.T.);
#421=EDGE_CURVE('',#552,#553,#11,.F.);
#422=EDGE_CURVE('',#553,#554,#12,.T.);
#423=EDGE_CURVE('',#554,#555,#13,.F.);
#424=EDGE_CURVE('',#555,#556,#102,.F.);
#425=EDGE_CURVE('',#556,#557,#14,.F.);
#426=EDGE_CURVE('',#557,#558,#15,.T.);
#427=EDGE_CURVE('',#558,#559,#16,.F.);
#428=EDGE_CURVE('',#559,#560,#103,.F.);
#429=EDGE_CURVE('',#560,#561,#17,.F.);
#430=EDGE_CURVE('',#561,#562,#18,.T.);
#431=EDGE_CURVE('',#562,#563,#19,.F.);
#432=EDGE_CURVE('',#563,#564,#104,.F.);
#433=EDGE_CURVE('',#564,#565,#20,.F.);
#434=EDGE_CURVE('',#565,#566,#21,.T.);
#435=EDGE_CURVE('',#566,#567,#22,.F.);
#436=EDGE_CURVE('',#567,#552,#105,.F.);
#437=EDGE_CURVE('',#552,#568,#23,.T.);
#438=EDGE_CURVE('',#569,#567,#24,.T.);
#439=EDGE_CURVE('',#568,#569,#106,.T.);
#440=EDGE_CURVE('',#570,#553,#640,.F.);
#441=EDGE_CURVE('',#568,#570,#641,.T.);
#442=EDGE_CURVE('',#571,#554,#642,.F.);
#443=EDGE_CURVE('',#570,#571,#107,.F.);
#444=EDGE_CURVE('',#572,#555,#25,.T.);
#445=EDGE_CURVE('',#571,#572,#643,.T.);
#446=EDGE_CURVE('',#556,#573,#26,.T.);
#447=EDGE_CURVE('',#573,#572,#108,.T.);
#448=EDGE_CURVE('',#574,#557,#644,.F.);
#449=EDGE_CURVE('',#573,#574,#645,.T.);
#450=EDGE_CURVE('',#575,#558,#646,.F.);
#451=EDGE_CURVE('',#574,#575,#109,.F.);
#452=EDGE_CURVE('',#576,#559,#27,.T.);
#453=EDGE_CURVE('',#575,#576,#647,.T.);
#454=EDGE_CURVE('',#577,#576,#110,.T.);
#455=EDGE_CURVE('',#560,#577,#28,.T.);
#456=EDGE_CURVE('',#578,#561,#648,.F.);
#457=EDGE_CURVE('',#577,#578,#649,.T.);
#458=EDGE_CURVE('',#579,#562,#650,.F.);
#459=EDGE_CURVE('',#578,#579,#111,.F.);
#460=EDGE_CURVE('',#580,#563,#29,.T.);
#461=EDGE_CURVE('',#579,#580,#651,.T.);
#462=EDGE_CURVE('',#581,#580,#112,.T.);
#463=EDGE_CURVE('',#564,#581,#30,.T.);
#464=EDGE_CURVE('',#582,#565,#652,.F.);
#465=EDGE_CURVE('',#581,#582,#653,.T.);
#466=EDGE_CURVE('',#583,#566,#654,.F.);
#467=EDGE_CURVE('',#582,#583,#113,.F.);
#468=EDGE_CURVE('',#583,#569,#655,.T.);
#469=EDGE_CURVE('',#584,#585,#656,.T.);
#470=EDGE_CURVE('',#586,#584,#657,.T.);
#471=EDGE_CURVE('',#586,#587,#658,.T.);
#472=EDGE_CURVE('',#587,#585,#659,.T.);
#473=EDGE_CURVE('',#584,#588,#660,.T.);
#474=EDGE_CURVE('',#589,#588,#661,.T.);
#475=EDGE_CURVE('',#586,#589,#662,.T.);
#476=EDGE_CURVE('',#588,#590,#663,.T.);
#477=EDGE_CURVE('',#591,#590,#664,.T.);
#478=EDGE_CURVE('',#589,#591,#665,.T.);
#479=EDGE_CURVE('',#585,#590,#666,.T.);
#480=EDGE_CURVE('',#587,#591,#667,.T.);
#481=EDGE_CURVE('',#592,#593,#668,.T.);
#482=EDGE_CURVE('',#594,#593,#669,.T.);
#483=EDGE_CURVE('',#595,#594,#670,.T.);
#484=EDGE_CURVE('',#595,#592,#671,.T.);
#485=EDGE_CURVE('',#596,#597,#672,.T.);
#486=EDGE_CURVE('',#597,#598,#673,.T.);
#487=EDGE_CURVE('',#599,#598,#674,.T.);
#488=EDGE_CURVE('',#596,#599,#675,.T.);
#489=EDGE_CURVE('',#600,#600,#114,.T.);
#490=EDGE_CURVE('',#601,#601,#115,.T.);
#491=EDGE_CURVE('',#602,#602,#116,.T.);
#492=EDGE_CURVE('',#603,#603,#117,.T.);
#493=EDGE_CURVE('',#604,#605,#676,.T.);
#494=EDGE_CURVE('',#604,#606,#677,.T.);
#495=EDGE_CURVE('',#606,#607,#678,.T.);
#496=EDGE_CURVE('',#605,#607,#679,.T.);
#497=EDGE_CURVE('',#592,#608,#680,.T.);
#498=EDGE_CURVE('',#608,#609,#681,.T.);
#499=EDGE_CURVE('',#593,#609,#682,.T.);
#500=EDGE_CURVE('',#610,#611,#683,.T.);
#501=EDGE_CURVE('',#604,#610,#684,.T.);
#502=EDGE_CURVE('',#605,#611,#685,.T.);
#503=EDGE_CURVE('',#610,#612,#686,.T.);
#504=EDGE_CURVE('',#606,#612,#687,.T.);
#505=EDGE_CURVE('',#612,#613,#688,.T.);
#506=EDGE_CURVE('',#607,#613,#689,.T.);
#507=EDGE_CURVE('',#611,#613,#690,.T.);
#508=EDGE_CURVE('',#614,#614,#118,.T.);
#509=EDGE_CURVE('',#615,#615,#119,.T.);
#510=EDGE_CURVE('',#616,#616,#120,.T.);
#511=EDGE_CURVE('',#617,#617,#121,.T.);
#512=EDGE_CURVE('',#618,#618,#122,.T.);
#513=EDGE_CURVE('',#595,#619,#691,.T.);
#514=EDGE_CURVE('',#619,#608,#692,.T.);
#515=EDGE_CURVE('',#620,#609,#693,.T.);
#516=EDGE_CURVE('',#594,#620,#694,.T.);
#517=EDGE_CURVE('',#619,#620,#695,.T.);
#518=EDGE_CURVE('',#621,#621,#123,.T.);
#519=EDGE_CURVE('',#622,#596,#696,.T.);
#520=EDGE_CURVE('',#622,#623,#697,.T.);
#521=EDGE_CURVE('',#623,#597,#698,.T.);
#522=EDGE_CURVE('',#624,#625,#699,.T.);
#523=EDGE_CURVE('',#624,#624,#124,.T.);
#524=EDGE_CURVE('',#622,#624,#700,.T.);
#525=EDGE_CURVE('',#625,#599,#701,.T.);
#526=EDGE_CURVE('',#626,#598,#702,.T.);
#527=EDGE_CURVE('',#625,#626,#703,.T.);
#528=EDGE_CURVE('',#623,#627,#704,.T.);
#529=EDGE_CURVE('',#627,#627,#125,.T.);
#530=EDGE_CURVE('',#627,#626,#705,.T.);
#531=VERTEX_POINT('',#1521);
#532=VERTEX_POINT('',#1522);
#533=VERTEX_POINT('',#1524);
#534=VERTEX_POINT('',#1526);
#535=VERTEX_POINT('',#1530);
#536=VERTEX_POINT('',#1532);
#537=VERTEX_POINT('',#1536);
#538=VERTEX_POINT('',#1538);
#539=VERTEX_POINT('',#1545);
#540=VERTEX_POINT('',#1547);
#541=VERTEX_POINT('',#1549);
#542=VERTEX_POINT('',#1551);
#543=VERTEX_POINT('',#1554);
#544=VERTEX_POINT('',#1556);
#545=VERTEX_POINT('',#1558);
#546=VERTEX_POINT('',#1560);
#547=VERTEX_POINT('',#1568);
#548=VERTEX_POINT('',#1571);
#549=VERTEX_POINT('',#1574);
#550=VERTEX_POINT('',#1577);
#551=VERTEX_POINT('',#1580);
#552=VERTEX_POINT('',#1640);
#553=VERTEX_POINT('',#1641);
#554=VERTEX_POINT('',#1646);
#555=VERTEX_POINT('',#1651);
#556=VERTEX_POINT('',#1653);
#557=VERTEX_POINT('',#1658);
#558=VERTEX_POINT('',#1663);
#559=VERTEX_POINT('',#1668);
#560=VERTEX_POINT('',#1670);
#561=VERTEX_POINT('',#1675);
#562=VERTEX_POINT('',#1680);
#563=VERTEX_POINT('',#1685);
#564=VERTEX_POINT('',#1687);
#565=VERTEX_POINT('',#1692);
#566=VERTEX_POINT('',#1697);
#567=VERTEX_POINT('',#1702);
#568=VERTEX_POINT('',#1709);
#569=VERTEX_POINT('',#1714);
#570=VERTEX_POINT('',#1718);
#571=VERTEX_POINT('',#1722);
#572=VERTEX_POINT('',#1729);
#573=VERTEX_POINT('',#1736);
#574=VERTEX_POINT('',#1740);
#575=VERTEX_POINT('',#1744);
#576=VERTEX_POINT('',#1751);
#577=VERTEX_POINT('',#1755);
#578=VERTEX_POINT('',#1762);
#579=VERTEX_POINT('',#1766);
#580=VERTEX_POINT('',#1773);
#581=VERTEX_POINT('',#1777);
#582=VERTEX_POINT('',#1784);
#583=VERTEX_POINT('',#1788);
#584=VERTEX_POINT('',#1796);
#585=VERTEX_POINT('',#1797);
#586=VERTEX_POINT('',#1799);
#587=VERTEX_POINT('',#1801);
#588=VERTEX_POINT('',#1805);
#589=VERTEX_POINT('',#1807);
#590=VERTEX_POINT('',#1811);
#591=VERTEX_POINT('',#1813);
#592=VERTEX_POINT('',#1823);
#593=VERTEX_POINT('',#1824);
#594=VERTEX_POINT('',#1826);
#595=VERTEX_POINT('',#1828);
#596=VERTEX_POINT('',#1831);
#597=VERTEX_POINT('',#1832);
#598=VERTEX_POINT('',#1834);
#599=VERTEX_POINT('',#1836);
#600=VERTEX_POINT('',#1840);
#601=VERTEX_POINT('',#1842);
#602=VERTEX_POINT('',#1844);
#603=VERTEX_POINT('',#1846);
#604=VERTEX_POINT('',#1848);
#605=VERTEX_POINT('',#1849);
#606=VERTEX_POINT('',#1851);
#607=VERTEX_POINT('',#1853);
#608=VERTEX_POINT('',#1856);
#609=VERTEX_POINT('',#1858);
#610=VERTEX_POINT('',#1862);
#611=VERTEX_POINT('',#1863);
#612=VERTEX_POINT('',#1868);
#613=VERTEX_POINT('',#1872);
#614=VERTEX_POINT('',#1878);
#615=VERTEX_POINT('',#1880);
#616=VERTEX_POINT('',#1882);
#617=VERTEX_POINT('',#1884);
#618=VERTEX_POINT('',#1886);
#619=VERTEX_POINT('',#1893);
#620=VERTEX_POINT('',#1897);
#621=VERTEX_POINT('',#1903);
#622=VERTEX_POINT('',#1906);
#623=VERTEX_POINT('',#1908);
#624=VERTEX_POINT('',#1912);
#625=VERTEX_POINT('',#1913);
#626=VERTEX_POINT('',#1919);
#627=VERTEX_POINT('',#1923);
#628=LINE('',#1520,#706);
#629=LINE('',#1523,#707);
#630=LINE('',#1525,#708);
#631=LINE('',#1527,#709);
#632=LINE('',#1529,#710);
#633=LINE('',#1531,#711);
#634=LINE('',#1533,#712);
#635=LINE('',#1535,#713);
#636=LINE('',#1537,#714);
#637=LINE('',#1539,#715);
#638=LINE('',#1541,#716);
#639=LINE('',#1542,#717);
#640=LINE('',#1717,#718);
#641=LINE('',#1719,#719);
#642=LINE('',#1721,#720);
#643=LINE('',#1730,#721);
#644=LINE('',#1739,#722);
#645=LINE('',#1741,#723);
#646=LINE('',#1743,#724);
#647=LINE('',#1752,#725);
#648=LINE('',#1761,#726);
#649=LINE('',#1763,#727);
#650=LINE('',#1765,#728);
#651=LINE('',#1774,#729);
#652=LINE('',#1783,#730);
#653=LINE('',#1785,#731);
#654=LINE('',#1787,#732);
#655=LINE('',#1791,#733);
#656=LINE('',#1795,#734);
#657=LINE('',#1798,#735);
#658=LINE('',#1800,#736);
#659=LINE('',#1802,#737);
#660=LINE('',#1804,#738);
#661=LINE('',#1806,#739);
#662=LINE('',#1808,#740);
#663=LINE('',#1810,#741);
#664=LINE('',#1812,#742);
#665=LINE('',#1814,#743);
#666=LINE('',#1816,#744);
#667=LINE('',#1817,#745);
#668=LINE('',#1822,#746);
#669=LINE('',#1825,#747);
#670=LINE('',#1827,#748);
#671=LINE('',#1829,#749);
#672=LINE('',#1830,#750);
#673=LINE('',#1833,#751);
#674=LINE('',#1835,#752);
#675=LINE('',#1837,#753);
#676=LINE('',#1847,#754);
#677=LINE('',#1850,#755);
#678=LINE('',#1852,#756);
#679=LINE('',#1854,#757);
#680=LINE('',#1855,#758);
#681=LINE('',#1857,#759);
#682=LINE('',#1859,#760);
#683=LINE('',#1861,#761);
#684=LINE('',#1864,#762);
#685=LINE('',#1865,#763);
#686=LINE('',#1867,#764);
#687=LINE('',#1869,#765);
#688=LINE('',#1871,#766);
#689=LINE('',#1873,#767);
#690=LINE('',#1875,#768);
#691=LINE('',#1892,#769);
#692=LINE('',#1894,#770);
#693=LINE('',#1896,#771);
#694=LINE('',#1898,#772);
#695=LINE('',#1900,#773);
#696=LINE('',#1905,#774);
#697=LINE('',#1907,#775);
#698=LINE('',#1909,#776);
#699=LINE('',#1911,#777);
#700=LINE('',#1915,#778);
#701=LINE('',#1916,#779);
#702=LINE('',#1918,#780);
#703=LINE('',#1920,#781);
#704=LINE('',#1922,#782);
#705=LINE('',#1925,#783);
#706=VECTOR('',#1234,1.);
#707=VECTOR('',#1235,1.);
#708=VECTOR('',#1236,1.);
#709=VECTOR('',#1237,1.);
#710=VECTOR('',#1240,1.);
#711=VECTOR('',#1241,1.);
#712=VECTOR('',#1242,1.);
#713=VECTOR('',#1245,1.);
#714=VECTOR('',#1246,1.);
#715=VECTOR('',#1247,1.);
#716=VECTOR('',#1250,1.);
#717=VECTOR('',#1251,1.);
#718=VECTOR('',#1316,1.);
#719=VECTOR('',#1317,1.);
#720=VECTOR('',#1320,1.);
#721=VECTOR('',#1325,1.);
#722=VECTOR('',#1332,1.);
#723=VECTOR('',#1333,1.);
#724=VECTOR('',#1336,1.);
#725=VECTOR('',#1341,1.);
#726=VECTOR('',#1348,1.);
#727=VECTOR('',#1349,1.);
#728=VECTOR('',#1352,1.);
#729=VECTOR('',#1357,1.);
#730=VECTOR('',#1364,1.);
#731=VECTOR('',#1365,1.);
#732=VECTOR('',#1368,1.);
#733=VECTOR('',#1373,1.);
#734=VECTOR('',#1380,1.);
#735=VECTOR('',#1381,1.);
#736=VECTOR('',#1382,1.);
#737=VECTOR('',#1383,1.);
#738=VECTOR('',#1386,1.);
#739=VECTOR('',#1387,1.);
#740=VECTOR('',#1388,1.);
#741=VECTOR('',#1391,1.);
#742=VECTOR('',#1392,1.);
#743=VECTOR('',#1393,1.);
#744=VECTOR('',#1396,1.);
#745=VECTOR('',#1397,1.);
#746=VECTOR('',#1406,1.);
#747=VECTOR('',#1407,1.);
#748=VECTOR('',#1408,1.);
#749=VECTOR('',#1409,1.);
#750=VECTOR('',#1410,1.);
#751=VECTOR('',#1411,1.);
#752=VECTOR('',#1412,1.);
#753=VECTOR('',#1413,1.);
#754=VECTOR('',#1424,1.);
#755=VECTOR('',#1425,1.);
#756=VECTOR('',#1426,1.);
#757=VECTOR('',#1427,1.);
#758=VECTOR('',#1428,1.);
#759=VECTOR('',#1429,1.);
#760=VECTOR('',#1430,1.);
#761=VECTOR('',#1433,1.);
#762=VECTOR('',#1434,1.);
#763=VECTOR('',#1435,1.);
#764=VECTOR('',#1438,1.);
#765=VECTOR('',#1439,1.);
#766=VECTOR('',#1442,1.);
#767=VECTOR('',#1443,1.);
#768=VECTOR('',#1446,1.);
#769=VECTOR('',#1469,1.);
#770=VECTOR('',#1470,1.);
#771=VECTOR('',#1473,1.);
#772=VECTOR('',#1474,1.);
#773=VECTOR('',#1477,1.);
#774=VECTOR('',#1484,1.);
#775=VECTOR('',#1485,1.);
#776=VECTOR('',#1486,1.);
#777=VECTOR('',#1489,1.);
#778=VECTOR('',#1492,1.);
#779=VECTOR('',#1493,1.);
#780=VECTOR('',#1496,1.);
#781=VECTOR('',#1497,1.);
#782=VECTOR('',#1500,1.);
#783=VECTOR('',#1503,1.);
#784=EDGE_LOOP('',(#126,#127,#128,#129));
#785=EDGE_LOOP('',(#130,#131,#132,#133));
#786=EDGE_LOOP('',(#134,#135,#136,#137));
#787=EDGE_LOOP('',(#138,#139,#140,#141));
#788=EDGE_LOOP('',(#142));
#789=EDGE_LOOP('',(#143));
#790=EDGE_LOOP('',(#144));
#791=EDGE_LOOP('',(#145));
#792=EDGE_LOOP('',(#146,#147,#148,#149));
#793=EDGE_LOOP('',(#150));
#794=EDGE_LOOP('',(#151));
#795=EDGE_LOOP('',(#152));
#796=EDGE_LOOP('',(#153));
#797=EDGE_LOOP('',(#154,#155,#156,#157));
#798=EDGE_LOOP('',(#158));
#799=EDGE_LOOP('',(#159));
#800=EDGE_LOOP('',(#160));
#801=EDGE_LOOP('',(#161));
#802=EDGE_LOOP('',(#162));
#803=EDGE_LOOP('',(#163));
#804=EDGE_LOOP('',(#164));
#805=EDGE_LOOP('',(#165));
#806=EDGE_LOOP('',(#166));
#807=EDGE_LOOP('',(#167));
#808=EDGE_LOOP('',(#168));
#809=EDGE_LOOP('',(#169));
#810=EDGE_LOOP('',(#170));
#811=EDGE_LOOP('',(#171));
#812=EDGE_LOOP('',(#172));
#813=EDGE_LOOP('',(#173));
#814=EDGE_LOOP('',(#174));
#815=EDGE_LOOP('',(#175));
#816=EDGE_LOOP('',(#176,#177,#178,#179,#180,#181,#182,#183,#184,#185,#186,
#187,#188,#189,#190,#191));
#817=EDGE_LOOP('',(#192,#193,#194,#195));
#818=EDGE_LOOP('',(#196,#197,#198,#199));
#819=EDGE_LOOP('',(#200,#201,#202,#203));
#820=EDGE_LOOP('',(#204,#205,#206,#207));
#821=EDGE_LOOP('',(#208,#209,#210,#211));
#822=EDGE_LOOP('',(#212,#213,#214,#215));
#823=EDGE_LOOP('',(#216,#217,#218,#219));
#824=EDGE_LOOP('',(#220,#221,#222,#223));
#825=EDGE_LOOP('',(#224,#225,#226,#227));
#826=EDGE_LOOP('',(#228,#229,#230,#231));
#827=EDGE_LOOP('',(#232,#233,#234,#235));
#828=EDGE_LOOP('',(#236,#237,#238,#239));
#829=EDGE_LOOP('',(#240,#241,#242,#243));
#830=EDGE_LOOP('',(#244,#245,#246,#247));
#831=EDGE_LOOP('',(#248,#249,#250,#251));
#832=EDGE_LOOP('',(#252,#253,#254,#255));
#833=EDGE_LOOP('',(#256,#257,#258,#259,#260,#261,#262,#263,#264,#265,#266,
#267,#268,#269,#270,#271));
#834=EDGE_LOOP('',(#272,#273,#274,#275));
#835=EDGE_LOOP('',(#276,#277,#278,#279));
#836=EDGE_LOOP('',(#280,#281,#282,#283));
#837=EDGE_LOOP('',(#284,#285,#286,#287));
#838=EDGE_LOOP('',(#288,#289,#290,#291));
#839=EDGE_LOOP('',(#292,#293,#294,#295));
#840=EDGE_LOOP('',(#296,#297,#298,#299));
#841=EDGE_LOOP('',(#300,#301,#302,#303));
#842=EDGE_LOOP('',(#304));
#843=EDGE_LOOP('',(#305));
#844=EDGE_LOOP('',(#306));
#845=EDGE_LOOP('',(#307));
#846=EDGE_LOOP('',(#308,#309,#310,#311));
#847=EDGE_LOOP('',(#312,#313,#314,#315));
#848=EDGE_LOOP('',(#316,#317,#318,#319));
#849=EDGE_LOOP('',(#320,#321,#322,#323));
#850=EDGE_LOOP('',(#324,#325,#326,#327));
#851=EDGE_LOOP('',(#328,#329,#330,#331));
#852=EDGE_LOOP('',(#332));
#853=EDGE_LOOP('',(#333));
#854=EDGE_LOOP('',(#334));
#855=EDGE_LOOP('',(#335));
#856=EDGE_LOOP('',(#336));
#857=EDGE_LOOP('',(#337,#338,#339,#340));
#858=EDGE_LOOP('',(#341));
#859=EDGE_LOOP('',(#342));
#860=EDGE_LOOP('',(#343));
#861=EDGE_LOOP('',(#344));
#862=EDGE_LOOP('',(#345));
#863=EDGE_LOOP('',(#346));
#864=EDGE_LOOP('',(#347));
#865=EDGE_LOOP('',(#348));
#866=EDGE_LOOP('',(#349,#350,#351,#352));
#867=EDGE_LOOP('',(#353,#354,#355,#356));
#868=EDGE_LOOP('',(#357,#358,#359,#360));
#869=EDGE_LOOP('',(#361));
#870=EDGE_LOOP('',(#362,#363,#364,#365));
#871=EDGE_LOOP('',(#366,#367,#368,#369));
#872=EDGE_LOOP('',(#370,#371,#372,#373,#374,#375));
#873=EDGE_LOOP('',(#376,#377,#378,#379));
#874=EDGE_LOOP('',(#380,#381,#382,#383,#384,#385));
#875=EDGE_LOOP('',(#386,#387,#388,#389,#390,#391));
#876=EDGE_LOOP('',(#392));
#877=EDGE_LOOP('',(#393));
#878=EDGE_LOOP('',(#394));
#879=EDGE_LOOP('',(#395));
#880=FACE_BOUND('',#784,.T.);
#881=FACE_BOUND('',#785,.T.);
#882=FACE_BOUND('',#786,.T.);
#883=FACE_BOUND('',#787,.T.);
#884=FACE_BOUND('',#788,.T.);
#885=FACE_BOUND('',#789,.T.);
#886=FACE_BOUND('',#790,.T.);
#887=FACE_BOUND('',#791,.T.);
#888=FACE_BOUND('',#792,.T.);
#889=FACE_BOUND('',#793,.T.);
#890=FACE_BOUND('',#794,.T.);
#891=FACE_BOUND('',#795,.T.);
#892=FACE_BOUND('',#796,.T.);
#893=FACE_BOUND('',#797,.T.);
#894=FACE_BOUND('',#798,.T.);
#895=FACE_BOUND('',#799,.T.);
#896=FACE_BOUND('',#800,.T.);
#897=FACE_BOUND('',#801,.T.);
#898=FACE_BOUND('',#802,.T.);
#899=FACE_BOUND('',#803,.T.);
#900=FACE_BOUND('',#804,.T.);
#901=FACE_BOUND('',#805,.T.);
#902=FACE_BOUND('',#806,.T.);
#903=FACE_BOUND('',#807,.T.);
#904=FACE_BOUND('',#808,.T.);
#905=FACE_BOUND('',#809,.T.);
#906=FACE_BOUND('',#810,.T.);
#907=FACE_BOUND('',#811,.T.);
#908=FACE_BOUND('',#812,.T.);
#909=FACE_BOUND('',#813,.T.);
#910=FACE_BOUND('',#814,.T.);
#911=FACE_BOUND('',#815,.T.);
#912=FACE_BOUND('',#816,.T.);
#913=FACE_BOUND('',#817,.T.);
#914=FACE_BOUND('',#818,.T.);
#915=FACE_BOUND('',#819,.T.);
#916=FACE_BOUND('',#820,.T.);
#917=FACE_BOUND('',#821,.T.);
#918=FACE_BOUND('',#822,.T.);
#919=FACE_BOUND('',#823,.T.);
#920=FACE_BOUND('',#824,.T.);
#921=FACE_BOUND('',#825,.T.);
#922=FACE_BOUND('',#826,.T.);
#923=FACE_BOUND('',#827,.T.);
#924=FACE_BOUND('',#828,.T.);
#925=FACE_BOUND('',#829,.T.);
#926=FACE_BOUND('',#830,.T.);
#927=FACE_BOUND('',#831,.T.);
#928=FACE_BOUND('',#832,.T.);
#929=FACE_BOUND('',#833,.T.);
#930=FACE_BOUND('',#834,.T.);
#931=FACE_BOUND('',#835,.T.);
#932=FACE_BOUND('',#836,.T.);
#933=FACE_BOUND('',#837,.T.);
#934=FACE_BOUND('',#838,.T.);
#935=FACE_BOUND('',#839,.T.);
#936=FACE_BOUND('',#840,.T.);
#937=FACE_BOUND('',#841,.T.);
#938=FACE_BOUND('',#842,.T.);
#939=FACE_BOUND('',#843,.T.);
#940=FACE_BOUND('',#844,.T.);
#941=FACE_BOUND('',#845,.T.);
#942=FACE_BOUND('',#846,.T.);
#943=FACE_BOUND('',#847,.T.);
#944=FACE_BOUND('',#848,.T.);
#945=FACE_BOUND('',#849,.T.);
#946=FACE_BOUND('',#850,.T.);
#947=FACE_BOUND('',#851,.T.);
#948=FACE_BOUND('',#852,.T.);
#949=FACE_BOUND('',#853,.T.);
#950=FACE_BOUND('',#854,.T.);
#951=FACE_BOUND('',#855,.T.);
#952=FACE_BOUND('',#856,.T.);
#953=FACE_BOUND('',#857,.T.);
#954=FACE_BOUND('',#858,.T.);
#955=FACE_BOUND('',#859,.T.);
#956=FACE_BOUND('',#860,.T.);
#957=FACE_BOUND('',#861,.T.);
#958=FACE_BOUND('',#862,.T.);
#959=FACE_BOUND('',#863,.T.);
#960=FACE_BOUND('',#864,.T.);
#961=FACE_BOUND('',#865,.T.);
#962=FACE_BOUND('',#866,.T.);
#963=FACE_BOUND('',#867,.T.);
#964=FACE_BOUND('',#868,.T.);
#965=FACE_BOUND('',#869,.T.);
#966=FACE_BOUND('',#870,.T.);
#967=FACE_BOUND('',#871,.T.);
#968=FACE_BOUND('',#872,.T.);
#969=FACE_BOUND('',#873,.T.);
#970=FACE_BOUND('',#874,.T.);
#971=FACE_BOUND('',#875,.T.);
#972=FACE_BOUND('',#876,.T.);
#973=FACE_BOUND('',#877,.T.);
#974=FACE_BOUND('',#878,.T.);
#975=FACE_BOUND('',#879,.T.);
#976=PLANE('',#1126);
#977=PLANE('',#1127);
#978=PLANE('',#1128);
#979=PLANE('',#1129);
#980=PLANE('',#1130);
#981=PLANE('',#1135);
#982=PLANE('',#1145);
#983=PLANE('',#1151);
#984=PLANE('',#1161);
#985=PLANE('',#1164);
#986=PLANE('',#1167);
#987=PLANE('',#1170);
#988=PLANE('',#1173);
#989=PLANE('',#1176);
#990=PLANE('',#1179);
#991=PLANE('',#1182);
#992=PLANE('',#1183);
#993=PLANE('',#1185);
#994=PLANE('',#1186);
#995=PLANE('',#1187);
#996=PLANE('',#1188);
#997=PLANE('',#1189);
#998=PLANE('',#1190);
#999=PLANE('',#1192);
#1000=PLANE('',#1193);
#1001=PLANE('',#1198);
#1002=PLANE('',#1199);
#1003=PLANE('',#1200);
#1004=PLANE('',#1201);
#1005=PLANE('',#1202);
#1006=PLANE('',#1212);
#1007=PLANE('',#1213);
#1008=PLANE('',#1214);
#1009=PLANE('',#1215);
#1010=PLANE('',#1217);
#1011=PLANE('',#1218);
#1012=PLANE('',#1220);
#1013=PLANE('',#1221);
#1014=PLANE('',#1223);
#1015=ADVANCED_FACE('',(#880),#976,.T.);
#1016=ADVANCED_FACE('',(#881),#977,.F.);
#1017=ADVANCED_FACE('',(#882),#978,.F.);
#1018=ADVANCED_FACE('',(#883),#979,.T.);
#1019=ADVANCED_FACE('',(#884,#885,#886,#887,#888),#980,.T.);
#1020=ADVANCED_FACE('',(#889,#890,#891,#892,#893),#981,.F.);
#1021=ADVANCED_FACE('',(#894,#895),#73,.F.);
#1022=ADVANCED_FACE('',(#896,#897),#74,.F.);
#1023=ADVANCED_FACE('',(#898,#899),#75,.F.);
#1024=ADVANCED_FACE('',(#900,#901),#76,.F.);
#1025=ADVANCED_FACE('',(#902),#982,.F.);
#1026=ADVANCED_FACE('',(#903,#904),#32,.T.);
#1027=ADVANCED_FACE('',(#905,#906),#77,.T.);
#1028=ADVANCED_FACE('',(#907,#908),#983,.F.);
#1029=ADVANCED_FACE('',(#909,#910),#78,.T.);
#1030=ADVANCED_FACE('',(#911,#912),#31,.T.);
#1031=ADVANCED_FACE('',(#913),#33,.F.);
#1032=ADVANCED_FACE('',(#914),#984,.F.);
#1033=ADVANCED_FACE('',(#915),#79,.T.);
#1034=ADVANCED_FACE('',(#916),#985,.F.);
#1035=ADVANCED_FACE('',(#917),#34,.F.);
#1036=ADVANCED_FACE('',(#918),#986,.F.);
#1037=ADVANCED_FACE('',(#919),#80,.T.);
#1038=ADVANCED_FACE('',(#920),#987,.F.);
#1039=ADVANCED_FACE('',(#921),#35,.F.);
#1040=ADVANCED_FACE('',(#922),#988,.F.);
#1041=ADVANCED_FACE('',(#923),#81,.T.);
#1042=ADVANCED_FACE('',(#924),#989,.F.);
#1043=ADVANCED_FACE('',(#925),#36,.F.);
#1044=ADVANCED_FACE('',(#926),#990,.F.);
#1045=ADVANCED_FACE('',(#927),#82,.T.);
#1046=ADVANCED_FACE('',(#928),#991,.F.);
#1047=ADVANCED_FACE('',(#929),#992,.T.);
#1048=ADVANCED_FACE('',(#930),#993,.T.);
#1049=ADVANCED_FACE('',(#931),#994,.F.);
#1050=ADVANCED_FACE('',(#932),#995,.F.);
#1051=ADVANCED_FACE('',(#933),#996,.T.);
#1052=ADVANCED_FACE('',(#934),#997,.T.);
#1053=ADVANCED_FACE('',(#935),#998,.F.);
#1054=ADVANCED_FACE('',(#936,#937),#999,.F.);
#1055=ADVANCED_FACE('',(#938,#939,#940,#941,#942,#943),#1000,.T.);
#1056=ADVANCED_FACE('',(#944),#1001,.T.);
#1057=ADVANCED_FACE('',(#945),#1002,.F.);
#1058=ADVANCED_FACE('',(#946),#1003,.F.);
#1059=ADVANCED_FACE('',(#947),#1004,.T.);
#1060=ADVANCED_FACE('',(#948,#949,#950,#951,#952,#953),#1005,.F.);
#1061=ADVANCED_FACE('',(#954,#955),#83,.F.);
#1062=ADVANCED_FACE('',(#956,#957),#84,.F.);
#1063=ADVANCED_FACE('',(#958,#959),#85,.F.);
#1064=ADVANCED_FACE('',(#960,#961),#86,.F.);
#1065=ADVANCED_FACE('',(#962),#1006,.T.);
#1066=ADVANCED_FACE('',(#963),#1007,.F.);
#1067=ADVANCED_FACE('',(#964),#1008,.T.);
#1068=ADVANCED_FACE('',(#965,#966),#1009,.T.);
#1069=ADVANCED_FACE('',(#967),#1010,.T.);
#1070=ADVANCED_FACE('',(#968),#1011,.F.);
#1071=ADVANCED_FACE('',(#969),#1012,.F.);
#1072=ADVANCED_FACE('',(#970),#1013,.T.);
#1073=ADVANCED_FACE('',(#971),#1014,.T.);
#1074=ADVANCED_FACE('',(#972,#973),#87,.F.);
#1075=ADVANCED_FACE('',(#974,#975),#88,.F.);
#1076=CLOSED_SHELL('',(#1015,#1016,#1017,#1018,#1019,#1020,#1021,#1022,
#1023,#1024));
#1077=CLOSED_SHELL('',(#1025,#1026,#1027,#1028,#1029,#1030,#1031,#1032,
#1033,#1034,#1035,#1036,#1037,#1038,#1039,#1040,#1041,#1042,#1043,#1044,
#1045,#1046,#1047));
#1078=CLOSED_SHELL('',(#1048,#1049,#1050,#1051,#1052,#1053));
#1079=CLOSED_SHELL('',(#1054,#1055,#1056,#1057,#1058,#1059,#1060,#1061,
#1062,#1063,#1064,#1065,#1066,#1067,#1068,#1069,#1070,#1071,#1072,#1073,
#1074,#1075));
#1080=STYLED_ITEM('',(#1084),#1111);
#1081=STYLED_ITEM('',(#1085),#1112);
#1082=STYLED_ITEM('',(#1086),#1113);
#1083=STYLED_ITEM('',(#1087),#1114);
#1084=PRESENTATION_STYLE_ASSIGNMENT((#1088));
#1085=PRESENTATION_STYLE_ASSIGNMENT((#1089));
#1086=PRESENTATION_STYLE_ASSIGNMENT((#1090));
#1087=PRESENTATION_STYLE_ASSIGNMENT((#1091));
#1088=SURFACE_STYLE_USAGE(.BOTH.,#1092);
#1089=SURFACE_STYLE_USAGE(.BOTH.,#1093);
#1090=SURFACE_STYLE_USAGE(.BOTH.,#1094);
#1091=SURFACE_STYLE_USAGE(.BOTH.,#1095);
#1092=SURFACE_SIDE_STYLE('',(#1096));
#1093=SURFACE_SIDE_STYLE('',(#1097));
#1094=SURFACE_SIDE_STYLE('',(#1098));
#1095=SURFACE_SIDE_STYLE('',(#1099));
#1096=SURFACE_STYLE_FILL_AREA(#1100);
#1097=SURFACE_STYLE_FILL_AREA(#1101);
#1098=SURFACE_STYLE_FILL_AREA(#1102);
#1099=SURFACE_STYLE_FILL_AREA(#1103);
#1100=FILL_AREA_STYLE('',(#1104));
#1101=FILL_AREA_STYLE('',(#1105));
#1102=FILL_AREA_STYLE('',(#1106));
#1103=FILL_AREA_STYLE('',(#1107));
#1104=FILL_AREA_STYLE_COLOUR('',#1108);
#1105=FILL_AREA_STYLE_COLOUR('',#1109);
#1106=FILL_AREA_STYLE_COLOUR('',#10);
#1107=FILL_AREA_STYLE_COLOUR('',#1110);
#1108=COLOUR_RGB('',0.4,0.4,0.4);
#1109=COLOUR_RGB('',0.8,0.8,0.8);
#1110=COLOUR_RGB('',0.972549019607843,0.529411764705882,0.00392156862745098);
#1111=MANIFOLD_SOLID_BREP('Part 1',#1076);
#1112=MANIFOLD_SOLID_BREP('Part 1',#1077);
#1113=MANIFOLD_SOLID_BREP('Part 1',#1078);
#1114=MANIFOLD_SOLID_BREP('Part 1',#1079);
#1115=SHAPE_DEFINITION_REPRESENTATION(#1947,#1120);
#1116=SHAPE_DEFINITION_REPRESENTATION(#1948,#1121);
#1117=SHAPE_DEFINITION_REPRESENTATION(#1950,#1122);
#1118=SHAPE_DEFINITION_REPRESENTATION(#1952,#1123);
#1119=SHAPE_DEFINITION_REPRESENTATION(#1954,#1124);
#1120=SHAPE_REPRESENTATION('full assembly',(#1125,#1144,#1184,#1191,#1226,
#1227,#1228,#1229),#1934);
#1121=SHAPE_REPRESENTATION('Part 1',(#1125),#1935);
#1122=SHAPE_REPRESENTATION('Part 1',(#1125),#1936);
#1123=SHAPE_REPRESENTATION('Part 1',(#1125),#1937);
#1124=SHAPE_REPRESENTATION('Part 1',(#1125),#1938);
#1125=AXIS2_PLACEMENT_3D('',#1518,#1230,#1231);
#1126=AXIS2_PLACEMENT_3D('',#1519,#1232,#1233);
#1127=AXIS2_PLACEMENT_3D('',#1528,#1238,#1239);
#1128=AXIS2_PLACEMENT_3D('',#1534,#1243,#1244);
#1129=AXIS2_PLACEMENT_3D('',#1540,#1248,#1249);
#1130=AXIS2_PLACEMENT_3D('',#1543,#1252,#1253);
#1131=AXIS2_PLACEMENT_3D('',#1544,#1254,#1255);
#1132=AXIS2_PLACEMENT_3D('',#1546,#1256,#1257);
#1133=AXIS2_PLACEMENT_3D('',#1548,#1258,#1259);
#1134=AXIS2_PLACEMENT_3D('',#1550,#1260,#1261);
#1135=AXIS2_PLACEMENT_3D('',#1552,#1262,#1263);
#1136=AXIS2_PLACEMENT_3D('',#1553,#1264,#1265);
#1137=AXIS2_PLACEMENT_3D('',#1555,#1266,#1267);
#1138=AXIS2_PLACEMENT_3D('',#1557,#1268,#1269);
#1139=AXIS2_PLACEMENT_3D('',#1559,#1270,#1271);
#1140=AXIS2_PLACEMENT_3D('',#1561,#1272,#1273);
#1141=AXIS2_PLACEMENT_3D('',#1562,#1274,#1275);
#1142=AXIS2_PLACEMENT_3D('',#1563,#1276,#1277);
#1143=AXIS2_PLACEMENT_3D('',#1564,#1278,#1279);
#1144=AXIS2_PLACEMENT_3D('',#1565,#1280,#1281);
#1145=AXIS2_PLACEMENT_3D('',#1566,#1282,#1283);
#1146=AXIS2_PLACEMENT_3D('',#1567,#1284,#1285);
#1147=AXIS2_PLACEMENT_3D('',#1569,#1286,#1287);
#1148=AXIS2_PLACEMENT_3D('',#1570,#1288,#1289);
#1149=AXIS2_PLACEMENT_3D('',#1572,#1290,#1291);
#1150=AXIS2_PLACEMENT_3D('',#1573,#1292,#1293);
#1151=AXIS2_PLACEMENT_3D('',#1575,#1294,#1295);
#1152=AXIS2_PLACEMENT_3D('',#1576,#1296,#1297);
#1153=AXIS2_PLACEMENT_3D('',#1578,#1298,#1299);
#1154=AXIS2_PLACEMENT_3D('',#1579,#1300,#1301);
#1155=AXIS2_PLACEMENT_3D('',#1652,#1302,#1303);
#1156=AXIS2_PLACEMENT_3D('',#1669,#1304,#1305);
#1157=AXIS2_PLACEMENT_3D('',#1686,#1306,#1307);
#1158=AXIS2_PLACEMENT_3D('',#1703,#1308,#1309);
#1159=AXIS2_PLACEMENT_3D('',#1704,#1310,#1311);
#1160=AXIS2_PLACEMENT_3D('',#1715,#1312,#1313);
#1161=AXIS2_PLACEMENT_3D('',#1716,#1314,#1315);
#1162=AXIS2_PLACEMENT_3D('',#1720,#1318,#1319);
#1163=AXIS2_PLACEMENT_3D('',#1723,#1321,#1322);
#1164=AXIS2_PLACEMENT_3D('',#1724,#1323,#1324);
#1165=AXIS2_PLACEMENT_3D('',#1731,#1326,#1327);
#1166=AXIS2_PLACEMENT_3D('',#1737,#1328,#1329);
#1167=AXIS2_PLACEMENT_3D('',#1738,#1330,#1331);
#1168=AXIS2_PLACEMENT_3D('',#1742,#1334,#1335);
#1169=AXIS2_PLACEMENT_3D('',#1745,#1337,#1338);
#1170=AXIS2_PLACEMENT_3D('',#1746,#1339,#1340);
#1171=AXIS2_PLACEMENT_3D('',#1753,#1342,#1343);
#1172=AXIS2_PLACEMENT_3D('',#1754,#1344,#1345);
#1173=AXIS2_PLACEMENT_3D('',#1760,#1346,#1347);
#1174=AXIS2_PLACEMENT_3D('',#1764,#1350,#1351);
#1175=AXIS2_PLACEMENT_3D('',#1767,#1353,#1354);
#1176=AXIS2_PLACEMENT_3D('',#1768,#1355,#1356);
#1177=AXIS2_PLACEMENT_3D('',#1775,#1358,#1359);
#1178=AXIS2_PLACEMENT_3D('',#1776,#1360,#1361);
#1179=AXIS2_PLACEMENT_3D('',#1782,#1362,#1363);
#1180=AXIS2_PLACEMENT_3D('',#1786,#1366,#1367);
#1181=AXIS2_PLACEMENT_3D('',#1789,#1369,#1370);
#1182=AXIS2_PLACEMENT_3D('',#1790,#1371,#1372);
#1183=AXIS2_PLACEMENT_3D('',#1792,#1374,#1375);
#1184=AXIS2_PLACEMENT_3D('',#1793,#1376,#1377);
#1185=AXIS2_PLACEMENT_3D('',#1794,#1378,#1379);
#1186=AXIS2_PLACEMENT_3D('',#1803,#1384,#1385);
#1187=AXIS2_PLACEMENT_3D('',#1809,#1389,#1390);
#1188=AXIS2_PLACEMENT_3D('',#1815,#1394,#1395);
#1189=AXIS2_PLACEMENT_3D('',#1818,#1398,#1399);
#1190=AXIS2_PLACEMENT_3D('',#1819,#1400,#1401);
#1191=AXIS2_PLACEMENT_3D('',#1820,#1402,#1403);
#1192=AXIS2_PLACEMENT_3D('',#1821,#1404,#1405);
#1193=AXIS2_PLACEMENT_3D('',#1838,#1414,#1415);
#1194=AXIS2_PLACEMENT_3D('',#1839,#1416,#1417);
#1195=AXIS2_PLACEMENT_3D('',#1841,#1418,#1419);
#1196=AXIS2_PLACEMENT_3D('',#1843,#1420,#1421);
#1197=AXIS2_PLACEMENT_3D('',#1845,#1422,#1423);
#1198=AXIS2_PLACEMENT_3D('',#1860,#1431,#1432);
#1199=AXIS2_PLACEMENT_3D('',#1866,#1436,#1437);
#1200=AXIS2_PLACEMENT_3D('',#1870,#1440,#1441);
#1201=AXIS2_PLACEMENT_3D('',#1874,#1444,#1445);
#1202=AXIS2_PLACEMENT_3D('',#1876,#1447,#1448);
#1203=AXIS2_PLACEMENT_3D('',#1877,#1449,#1450);
#1204=AXIS2_PLACEMENT_3D('',#1879,#1451,#1452);
#1205=AXIS2_PLACEMENT_3D('',#1881,#1453,#1454);
#1206=AXIS2_PLACEMENT_3D('',#1883,#1455,#1456);
#1207=AXIS2_PLACEMENT_3D('',#1885,#1457,#1458);
#1208=AXIS2_PLACEMENT_3D('',#1887,#1459,#1460);
#1209=AXIS2_PLACEMENT_3D('',#1888,#1461,#1462);
#1210=AXIS2_PLACEMENT_3D('',#1889,#1463,#1464);
#1211=AXIS2_PLACEMENT_3D('',#1890,#1465,#1466);
#1212=AXIS2_PLACEMENT_3D('',#1891,#1467,#1468);
#1213=AXIS2_PLACEMENT_3D('',#1895,#1471,#1472);
#1214=AXIS2_PLACEMENT_3D('',#1899,#1475,#1476);
#1215=AXIS2_PLACEMENT_3D('',#1901,#1478,#1479);
#1216=AXIS2_PLACEMENT_3D('',#1902,#1480,#1481);
#1217=AXIS2_PLACEMENT_3D('',#1904,#1482,#1483);
#1218=AXIS2_PLACEMENT_3D('',#1910,#1487,#1488);
#1219=AXIS2_PLACEMENT_3D('',#1914,#1490,#1491);
#1220=AXIS2_PLACEMENT_3D('',#1917,#1494,#1495);
#1221=AXIS2_PLACEMENT_3D('',#1921,#1498,#1499);
#1222=AXIS2_PLACEMENT_3D('',#1924,#1501,#1502);
#1223=AXIS2_PLACEMENT_3D('',#1926,#1504,#1505);
#1224=AXIS2_PLACEMENT_3D('',#1927,#1506,#1507);
#1225=AXIS2_PLACEMENT_3D('',#1928,#1508,#1509);
#1226=AXIS2_PLACEMENT_3D('',#1929,#1510,#1511);
#1227=AXIS2_PLACEMENT_3D('',#1930,#1512,#1513);
#1228=AXIS2_PLACEMENT_3D('',#1931,#1514,#1515);
#1229=AXIS2_PLACEMENT_3D('',#1932,#1516,#1517);
#1230=DIRECTION('',(0.,0.,1.));
#1231=DIRECTION('',(1.,0.,0.));
#1232=DIRECTION('',(1.,-7.70988211545248E-17,0.));
#1233=DIRECTION('',(7.70988211545248E-17,1.,0.));
#1234=DIRECTION('',(-7.70988211545248E-17,-1.,0.));
#1235=DIRECTION('',(0.,0.,-1.));
#1236=DIRECTION('',(-7.70988211545248E-17,-1.,0.));
#1237=DIRECTION('',(0.,0.,-1.));
#1238=DIRECTION('',(0.,-1.,0.));
#1239=DIRECTION('',(0.,0.,-1.));
#1240=DIRECTION('',(-1.,0.,0.));
#1241=DIRECTION('',(0.,0.,-1.));
#1242=DIRECTION('',(-1.,0.,0.));
#1243=DIRECTION('',(1.,-7.70988211545248E-17,0.));
#1244=DIRECTION('',(7.70988211545248E-17,1.,0.));
#1245=DIRECTION('',(-7.70988211545248E-17,-1.,0.));
#1246=DIRECTION('',(0.,0.,-1.));
#1247=DIRECTION('',(-7.70988211545248E-17,-1.,0.));
#1248=DIRECTION('',(0.,-1.,0.));
#1249=DIRECTION('',(0.,0.,-1.));
#1250=DIRECTION('',(-1.,0.,0.));
#1251=DIRECTION('',(-1.,0.,0.));
#1252=DIRECTION('',(0.,0.,1.));
#1253=DIRECTION('',(1.,0.,0.));
#1254=DIRECTION('',(0.,0.,1.));
#1255=DIRECTION('',(1.,0.,0.));
#1256=DIRECTION('',(0.,0.,1.));
#1257=DIRECTION('',(1.,0.,0.));
#1258=DIRECTION('',(0.,0.,1.));
#1259=DIRECTION('',(1.,0.,0.));
#1260=DIRECTION('',(0.,0.,1.));
#1261=DIRECTION('',(1.,0.,0.));
#1262=DIRECTION('',(0.,0.,1.));
#1263=DIRECTION('',(1.,0.,0.));
#1264=DIRECTION('',(0.,0.,1.));
#1265=DIRECTION('',(1.,0.,0.));
#1266=DIRECTION('',(0.,0.,1.));
#1267=DIRECTION('',(1.,0.,0.));
#1268=DIRECTION('',(0.,0.,1.));
#1269=DIRECTION('',(1.,0.,0.));
#1270=DIRECTION('',(0.,0.,1.));
#1271=DIRECTION('',(1.,0.,0.));
#1272=DIRECTION('',(0.,0.,1.));
#1273=DIRECTION('',(1.,0.,0.));
#1274=DIRECTION('',(0.,0.,1.));
#1275=DIRECTION('',(1.,0.,0.));
#1276=DIRECTION('',(0.,0.,1.));
#1277=DIRECTION('',(1.,0.,0.));
#1278=DIRECTION('',(0.,0.,1.));
#1279=DIRECTION('',(1.,0.,0.));
#1280=DIRECTION('',(0.,0.,1.));
#1281=DIRECTION('',(1.,0.,0.));
#1282=DIRECTION('',(0.,0.,1.));
#1283=DIRECTION('',(1.,-1.942890293094E-15,0.));
#1284=DIRECTION('',(0.,0.,1.));
#1285=DIRECTION('',(1.,0.,0.));
#1286=DIRECTION('',(0.,0.,1.));
#1287=DIRECTION('',(1.,-1.942890293094E-15,0.));
#1288=DIRECTION('',(0.,0.,1.));
#1289=DIRECTION('',(1.,0.,0.));
#1290=DIRECTION('',(0.,0.,1.));
#1291=DIRECTION('',(1.,-1.50990331349E-15,0.));
#1292=DIRECTION('',(0.,0.,1.));
#1293=DIRECTION('',(1.,0.,0.));
#1294=DIRECTION('',(0.,0.,1.));
#1295=DIRECTION('',(1.,0.,0.));
#1296=DIRECTION('',(0.,0.,1.));
#1297=DIRECTION('',(1.,0.,0.));
#1298=DIRECTION('',(0.,0.,1.));
#1299=DIRECTION('',(1.,0.,0.));
#1300=DIRECTION('',(0.,0.,1.));
#1301=DIRECTION('',(1.,0.,0.));
#1302=DIRECTION('',(0.,0.,1.));
#1303=DIRECTION('',(1.,0.,0.));
#1304=DIRECTION('',(0.,0.,1.));
#1305=DIRECTION('',(1.,0.,0.));
#1306=DIRECTION('',(0.,0.,1.));
#1307=DIRECTION('',(1.,0.,0.));
#1308=DIRECTION('',(0.,0.,1.));
#1309=DIRECTION('',(1.,0.,0.));
#1310=DIRECTION('',(0.,0.,1.));
#1311=DIRECTION('',(1.,0.,0.));
#1312=DIRECTION('',(0.,0.,1.));
#1313=DIRECTION('',(1.,0.,0.));
#1314=DIRECTION('',(0.,-1.,0.));
#1315=DIRECTION('',(-1.,0.,0.));
#1316=DIRECTION('',(0.,0.,-1.));
#1317=DIRECTION('',(-1.,0.,0.));
#1318=DIRECTION('',(0.,0.,-1.));
#1319=DIRECTION('',(1.,0.,0.));
#1320=DIRECTION('',(0.,0.,-1.));
#1321=DIRECTION('',(0.,0.,-1.));
#1322=DIRECTION('',(-1.,0.,0.));
#1323=DIRECTION('',(1.,0.,0.));
#1324=DIRECTION('',(0.,-1.,0.));
#1325=DIRECTION('',(0.,-1.,0.));
#1326=DIRECTION('',(0.,0.,1.));
#1327=DIRECTION('',(1.,0.,0.));
#1328=DIRECTION('',(0.,0.,1.));
#1329=DIRECTION('',(1.,0.,0.));
#1330=DIRECTION('',(-1.,0.,0.));
#1331=DIRECTION('',(0.,1.,0.));
#1332=DIRECTION('',(0.,0.,-1.));
#1333=DIRECTION('',(0.,1.,0.));
#1334=DIRECTION('',(0.,0.,-1.));
#1335=DIRECTION('',(1.,0.,0.));
#1336=DIRECTION('',(0.,0.,-1.));
#1337=DIRECTION('',(0.,0.,-1.));
#1338=DIRECTION('',(-1.,0.,0.));
#1339=DIRECTION('',(0.,-1.,0.));
#1340=DIRECTION('',(-1.,0.,0.));
#1341=DIRECTION('',(-1.,0.,0.));
#1342=DIRECTION('',(0.,0.,1.));
#1343=DIRECTION('',(1.,0.,0.));
#1344=DIRECTION('',(0.,0.,1.));
#1345=DIRECTION('',(1.,0.,0.));
#1346=DIRECTION('',(0.,1.,0.));
#1347=DIRECTION('',(1.,0.,0.));
#1348=DIRECTION('',(0.,0.,-1.));
#1349=DIRECTION('',(1.,0.,0.));
#1350=DIRECTION('',(0.,0.,-1.));
#1351=DIRECTION('',(1.,0.,0.));
#1352=DIRECTION('',(0.,0.,-1.));
#1353=DIRECTION('',(0.,0.,-1.));
#1354=DIRECTION('',(-1.,0.,0.));
#1355=DIRECTION('',(-1.,0.,0.));
#1356=DIRECTION('',(0.,1.,0.));
#1357=DIRECTION('',(0.,1.,0.));
#1358=DIRECTION('',(0.,0.,1.));
#1359=DIRECTION('',(1.,0.,0.));
#1360=DIRECTION('',(0.,0.,1.));
#1361=DIRECTION('',(1.,0.,0.));
#1362=DIRECTION('',(1.,0.,0.));
#1363=DIRECTION('',(0.,-1.,0.));
#1364=DIRECTION('',(0.,0.,-1.));
#1365=DIRECTION('',(0.,-1.,0.));
#1366=DIRECTION('',(0.,0.,-1.));
#1367=DIRECTION('',(1.,0.,0.));
#1368=DIRECTION('',(0.,0.,-1.));
#1369=DIRECTION('',(0.,0.,-1.));
#1370=DIRECTION('',(-1.,0.,0.));
#1371=DIRECTION('',(0.,1.,0.));
#1372=DIRECTION('',(1.,0.,0.));
#1373=DIRECTION('',(1.,0.,0.));
#1374=DIRECTION('',(0.,0.,1.));
#1375=DIRECTION('',(1.,0.,0.));
#1376=DIRECTION('',(0.,0.,1.));
#1377=DIRECTION('',(1.,0.,0.));
#1378=DIRECTION('',(1.,0.,0.));
#1379=DIRECTION('',(0.,0.,-1.));
#1380=DIRECTION('',(0.,-1.,0.));
#1381=DIRECTION('',(0.,0.,-1.));
#1382=DIRECTION('',(0.,-1.,0.));
#1383=DIRECTION('',(0.,0.,-1.));
#1384=DIRECTION('',(0.,-1.,0.));
#1385=DIRECTION('',(0.,0.,-1.));
#1386=DIRECTION('',(-1.,0.,0.));
#1387=DIRECTION('',(0.,0.,-1.));
#1388=DIRECTION('',(-1.,0.,0.));
#1389=DIRECTION('',(1.,0.,0.));
#1390=DIRECTION('',(0.,0.,-1.));
#1391=DIRECTION('',(0.,-1.,0.));
#1392=DIRECTION('',(0.,0.,-1.));
#1393=DIRECTION('',(0.,-1.,0.));
#1394=DIRECTION('',(0.,-1.,0.));
#1395=DIRECTION('',(0.,0.,-1.));
#1396=DIRECTION('',(-1.,0.,0.));
#1397=DIRECTION('',(-1.,0.,0.));
#1398=DIRECTION('',(0.,0.,1.));
#1399=DIRECTION('',(1.,0.,0.));
#1400=DIRECTION('',(0.,0.,1.));
#1401=DIRECTION('',(1.,0.,0.));
#1402=DIRECTION('',(0.,0.,1.));
#1403=DIRECTION('',(-1.,0.,0.));
#1404=DIRECTION('',(0.,-1.,0.));
#1405=DIRECTION('',(0.,0.,-1.));
#1406=DIRECTION('',(-1.,0.,0.));
#1407=DIRECTION('',(0.,0.,-1.));
#1408=DIRECTION('',(-1.,0.,0.));
#1409=DIRECTION('',(0.,0.,-1.));
#1410=DIRECTION('',(0.,0.,-1.));
#1411=DIRECTION('',(1.,0.,-1.23908819712629E-16));
#1412=DIRECTION('',(0.,0.,-1.));
#1413=DIRECTION('',(1.,0.,-9.91270557701033E-17));
#1414=DIRECTION('',(0.,0.,1.));
#1415=DIRECTION('',(1.,0.,0.));
#1416=DIRECTION('',(0.,0.,1.));
#1417=DIRECTION('',(1.,0.,0.));
#1418=DIRECTION('',(0.,0.,1.));
#1419=DIRECTION('',(1.,0.,0.));
#1420=DIRECTION('',(0.,0.,1.));
#1421=DIRECTION('',(1.,0.,0.));
#1422=DIRECTION('',(0.,0.,1.));
#1423=DIRECTION('',(1.,0.,0.));
#1424=DIRECTION('',(0.,-1.,0.));
#1425=DIRECTION('',(-1.,0.,0.));
#1426=DIRECTION('',(0.,-1.,0.));
#1427=DIRECTION('',(-1.,0.,0.));
#1428=DIRECTION('',(0.,-1.,0.));
#1429=DIRECTION('',(-1.,0.,0.));
#1430=DIRECTION('',(0.,-1.,0.));
#1431=DIRECTION('',(1.,0.,0.));
#1432=DIRECTION('',(0.,0.,-1.));
#1433=DIRECTION('',(0.,-1.,0.));
#1434=DIRECTION('',(0.,0.,-1.));
#1435=DIRECTION('',(0.,0.,-1.));
#1436=DIRECTION('',(0.,-1.,0.));
#1437=DIRECTION('',(0.,0.,-1.));
#1438=DIRECTION('',(-1.,0.,0.));
#1439=DIRECTION('',(0.,0.,-1.));
#1440=DIRECTION('',(1.,0.,0.));
#1441=DIRECTION('',(0.,0.,-1.));
#1442=DIRECTION('',(0.,-1.,0.));
#1443=DIRECTION('',(0.,0.,-1.));
#1444=DIRECTION('',(0.,-1.,0.));
#1445=DIRECTION('',(0.,0.,-1.));
#1446=DIRECTION('',(-1.,0.,0.));
#1447=DIRECTION('',(0.,0.,1.));
#1448=DIRECTION('',(1.,0.,0.));
#1449=DIRECTION('',(0.,0.,-1.));
#1450=DIRECTION('',(-1.,0.,0.));
#1451=DIRECTION('',(0.,0.,1.));
#1452=DIRECTION('',(1.,0.,0.));
#1453=DIRECTION('',(0.,0.,1.));
#1454=DIRECTION('',(1.,0.,0.));
#1455=DIRECTION('',(0.,0.,1.));
#1456=DIRECTION('',(1.,0.,0.));
#1457=DIRECTION('',(0.,0.,1.));
#1458=DIRECTION('',(1.,0.,0.));
#1459=DIRECTION('',(0.,0.,1.));
#1460=DIRECTION('',(1.,0.,0.));
#1461=DIRECTION('',(0.,0.,1.));
#1462=DIRECTION('',(1.,0.,0.));
#1463=DIRECTION('',(0.,0.,1.));
#1464=DIRECTION('',(1.,0.,0.));
#1465=DIRECTION('',(0.,0.,1.));
#1466=DIRECTION('',(1.,0.,0.));
#1467=DIRECTION('',(1.,0.,0.));
#1468=DIRECTION('',(0.,0.,-1.));
#1469=DIRECTION('',(0.,-1.,0.));
#1470=DIRECTION('',(0.,0.,-1.));
#1471=DIRECTION('',(1.,0.,0.));
#1472=DIRECTION('',(0.,0.,-1.));
#1473=DIRECTION('',(0.,0.,-1.));
#1474=DIRECTION('',(0.,-1.,0.));
#1475=DIRECTION('',(0.,-1.,0.));
#1476=DIRECTION('',(0.,0.,-1.));
#1477=DIRECTION('',(-1.,0.,0.));
#1478=DIRECTION('',(0.,0.,1.));
#1479=DIRECTION('',(1.,0.,0.));
#1480=DIRECTION('',(0.,0.,1.));
#1481=DIRECTION('',(1.,0.,0.));
#1482=DIRECTION('',(1.,0.,0.));
#1483=DIRECTION('',(0.,0.,-1.));
#1484=DIRECTION('',(0.,1.,0.));
#1485=DIRECTION('',(0.,0.,-1.));
#1486=DIRECTION('',(0.,1.,0.));
#1487=DIRECTION('',(9.91270557701033E-17,0.,1.));
#1488=DIRECTION('',(1.,0.,-9.91270557701033E-17));
#1489=DIRECTION('',(1.,0.,-9.91270557701033E-17));
#1490=DIRECTION('',(9.91270557701033E-17,0.,1.));
#1491=DIRECTION('',(1.,0.,-9.91270557701033E-17));
#1492=DIRECTION('',(1.,0.,-9.91270557701033E-17));
#1493=DIRECTION('',(0.,1.,0.));
#1494=DIRECTION('',(1.,0.,0.));
#1495=DIRECTION('',(0.,0.,-1.));
#1496=DIRECTION('',(0.,1.,0.));
#1497=DIRECTION('',(0.,0.,-1.));
#1498=DIRECTION('',(1.23908819712629E-16,0.,1.));
#1499=DIRECTION('',(1.,0.,-1.23908819712629E-16));
#1500=DIRECTION('',(1.,0.,-1.23908819712629E-16));
#1501=DIRECTION('',(1.23908819712629E-16,0.,1.));
#1502=DIRECTION('',(1.,0.,-1.23908819712629E-16));
#1503=DIRECTION('',(1.,0.,-1.23908819712629E-16));
#1504=DIRECTION('',(0.,1.,0.));
#1505=DIRECTION('',(-1.,0.,0.));
#1506=DIRECTION('',(0.,0.,-1.));
#1507=DIRECTION('',(-1.,0.,0.));
#1508=DIRECTION('',(0.,0.,-1.));
#1509=DIRECTION('',(-1.,0.,0.));
#1510=DIRECTION('',(0.,0.,1.));
#1511=DIRECTION('',(1.,0.,0.));
#1512=DIRECTION('',(0.,0.,1.));
#1513=DIRECTION('',(1.,0.,0.));
#1514=DIRECTION('',(0.,0.,1.));
#1515=DIRECTION('',(1.,0.,0.));
#1516=DIRECTION('',(0.,0.,1.));
#1517=DIRECTION('',(1.,0.,0.));
#1518=CARTESIAN_POINT('',(0.,0.,0.));
#1519=CARTESIAN_POINT('',(0.045,0.,0.025));
#1520=CARTESIAN_POINT('',(0.045,0.,0.));
#1521=CARTESIAN_POINT('',(0.045,0.045,0.));
#1522=CARTESIAN_POINT('',(0.045,-0.045,0.));
#1523=CARTESIAN_POINT('',(0.045,0.045,0.025));
#1524=CARTESIAN_POINT('',(0.045,0.045,0.025));
#1525=CARTESIAN_POINT('',(0.045,0.,0.025));
#1526=CARTESIAN_POINT('',(0.045,-0.045,0.025));
#1527=CARTESIAN_POINT('',(0.045,-0.045,0.025));
#1528=CARTESIAN_POINT('',(0.,0.045,0.025));
#1529=CARTESIAN_POINT('',(0.,0.045,0.));
#1530=CARTESIAN_POINT('',(-0.045,0.045,0.));
#1531=CARTESIAN_POINT('',(-0.045,0.045,0.025));
#1532=CARTESIAN_POINT('',(-0.045,0.045,0.025));
#1533=CARTESIAN_POINT('',(0.,0.045,0.025));
#1534=CARTESIAN_POINT('',(-0.045,0.,0.025));
#1535=CARTESIAN_POINT('',(-0.045,0.,0.));
#1536=CARTESIAN_POINT('',(-0.045,-0.045,0.));
#1537=CARTESIAN_POINT('',(-0.045,-0.045,0.025));
#1538=CARTESIAN_POINT('',(-0.045,-0.045,0.025));
#1539=CARTESIAN_POINT('',(-0.045,0.,0.025));
#1540=CARTESIAN_POINT('',(-6.93889390390723E-18,-0.045,0.025));
#1541=CARTESIAN_POINT('',(-6.93889390390723E-18,-0.045,0.));
#1542=CARTESIAN_POINT('',(-6.93889390390723E-18,-0.045,0.025));
#1543=CARTESIAN_POINT('',(0.,0.,0.025));
#1544=CARTESIAN_POINT('',(-0.041,-0.041,0.025));
#1545=CARTESIAN_POINT('',(-0.03875,-0.041,0.025));
#1546=CARTESIAN_POINT('',(0.041,-0.041,0.025));
#1547=CARTESIAN_POINT('',(0.04325,-0.041,0.025));
#1548=CARTESIAN_POINT('',(0.041,0.041,0.025));
#1549=CARTESIAN_POINT('',(0.04325,0.041,0.025));
#1550=CARTESIAN_POINT('',(-0.041,0.041,0.025));
#1551=CARTESIAN_POINT('',(-0.03875,0.041,0.025));
#1552=CARTESIAN_POINT('',(0.,0.,0.));
#1553=CARTESIAN_POINT('',(-0.041,-0.041,0.));
#1554=CARTESIAN_POINT('',(-0.03875,-0.041,0.));
#1555=CARTESIAN_POINT('',(0.041,-0.041,0.));
#1556=CARTESIAN_POINT('',(0.04325,-0.041,0.));
#1557=CARTESIAN_POINT('',(0.041,0.041,0.));
#1558=CARTESIAN_POINT('',(0.04325,0.041,0.));
#1559=CARTESIAN_POINT('',(-0.041,0.041,0.));
#1560=CARTESIAN_POINT('',(-0.03875,0.041,0.));
#1561=CARTESIAN_POINT('',(-0.041,0.041,-0.0416));
#1562=CARTESIAN_POINT('',(0.041,0.041,-0.0416));
#1563=CARTESIAN_POINT('',(0.041,-0.041,-0.0416));
#1564=CARTESIAN_POINT('',(-0.041,-0.041,-0.0416));
#1565=CARTESIAN_POINT('',(-0.000424625381128863,-0.0470710471272469,-0.0827388361096382));
#1566=CARTESIAN_POINT('',(0.,0.,-0.014));
#1567=CARTESIAN_POINT('',(0.,0.,-0.014));
#1568=CARTESIAN_POINT('',(0.0016,0.,-0.014));
#1569=CARTESIAN_POINT('',(0.,0.,-0.014));
#1570=CARTESIAN_POINT('',(0.,0.,-0.0136));
#1571=CARTESIAN_POINT('',(0.002,0.,-0.0136));
#1572=CARTESIAN_POINT('',(0.,0.,-0.0136));
#1573=CARTESIAN_POINT('',(0.,0.,0.));
#1574=CARTESIAN_POINT('',(0.002,0.,0.));
#1575=CARTESIAN_POINT('',(0.,0.,0.));
#1576=CARTESIAN_POINT('',(0.,0.,0.));
#1577=CARTESIAN_POINT('',(0.004,0.,0.));
#1578=CARTESIAN_POINT('',(0.,0.,0.));
#1579=CARTESIAN_POINT('',(0.,0.,0.002));
#1580=CARTESIAN_POINT('',(0.004,0.,0.002));
#1581=CARTESIAN_POINT('',(0.000586807411392673,-0.00058680741139267,0.0030961765755889));
#1582=CARTESIAN_POINT('',(0.000829870999692564,6.64073830647371E-19,0.0030961765755889));
#1583=CARTESIAN_POINT('',(0.000586807411392671,0.000586807411392672,0.0030961765755889));
#1584=CARTESIAN_POINT('',(-6.94567016748526E-19,0.000829870999692564,0.0030961765755889));
#1585=CARTESIAN_POINT('',(-0.000586807411392672,0.000586807411392671,0.0030961765755889));
#1586=CARTESIAN_POINT('',(-0.000829870999692564,-6.78896907224322E-19,0.0030961765755889));
#1587=CARTESIAN_POINT('',(-0.000586807411392671,-0.000586807411392672,0.0030961765755889));
#1588=CARTESIAN_POINT('',(3.25260651745651E-19,-0.000829870999692564,0.0030961765755889));
#1589=CARTESIAN_POINT('',(0.000586807411392673,-0.00058680741139267,0.0030961765755889));
#1590=CARTESIAN_POINT('',(0.000829870999692564,6.64073830647371E-19,0.0030961765755889));
#1591=CARTESIAN_POINT('',(0.000586807411392671,0.000586807411392672,0.0030961765755889));
#1592=CARTESIAN_POINT('',(0.00145843110665557,-0.00145843110665557,0.00308755400338721));
#1593=CARTESIAN_POINT('',(0.00206253305081911,3.52365706057789E-19,0.00308755400338721));
#1594=CARTESIAN_POINT('',(0.00145843110665557,0.00145843110665557,0.00308755400338721));
#1595=CARTESIAN_POINT('',(-6.09863722023096E-19,0.00206253305081911,0.00308755400338721));
#1596=CARTESIAN_POINT('',(-0.00145843110665557,0.00145843110665557,0.00308755400338721));
#1597=CARTESIAN_POINT('',(-0.00206253305081911,-4.60785923306339E-19,0.00308755400338721));
#1598=CARTESIAN_POINT('',(-0.00145843110665557,-0.00145843110665557,0.00308755400338721));
#1599=CARTESIAN_POINT('',(5.42101086242752E-20,-0.00206253305081911,0.00308755400338721));
#1600=CARTESIAN_POINT('',(0.00145843110665557,-0.00145843110665557,0.00308755400338721));
#1601=CARTESIAN_POINT('',(0.00206253305081911,3.52365706057789E-19,0.00308755400338721));
#1602=CARTESIAN_POINT('',(0.00145843110665557,0.00145843110665557,0.00308755400338721));
#1603=CARTESIAN_POINT('',(0.00262243762841748,-0.00262243762841747,0.00303226684725564));
#1604=CARTESIAN_POINT('',(0.00370868686058553,-2.16840434497101E-19,0.00303226684725564));
#1605=CARTESIAN_POINT('',(0.00262243762841748,0.00262243762841748,0.00303226684725564));
#1606=CARTESIAN_POINT('',(4.74338450462408E-19,0.00370868686058553,0.00303226684725564));
#1607=CARTESIAN_POINT('',(-0.00262243762841748,0.00262243762841748,0.00303226684725564));
#1608=CARTESIAN_POINT('',(-0.00370868686058553,-1.27054942088145E-19,0.00303226684725564));
#1609=CARTESIAN_POINT('',(-0.00262243762841747,-0.00262243762841748,0.00303226684725564));
#1610=CARTESIAN_POINT('',(-2.19550939928315E-18,-0.00370868686058553,0.00303226684725564));
#1611=CARTESIAN_POINT('',(0.00262243762841748,-0.00262243762841747,0.00303226684725564));
#1612=CARTESIAN_POINT('',(0.00370868686058553,-2.16840434497101E-19,0.00303226684725564));
#1613=CARTESIAN_POINT('',(0.00262243762841748,0.00262243762841748,0.00303226684725564));
#1614=CARTESIAN_POINT('',(0.00302437694891523,-0.00302437694891523,0.00249278338104726));
#1615=CARTESIAN_POINT('',(0.00427711489888448,-3.79470760369927E-19,0.00249278338104726));
#1616=CARTESIAN_POINT('',(0.00302437694891523,0.00302437694891523,0.00249278338104726));
#1617=CARTESIAN_POINT('',(-5.96311194867027E-19,0.00427711489888448,0.00249278338104726));
#1618=CARTESIAN_POINT('',(-0.00302437694891523,0.00302437694891523,0.00249278338104726));
#1619=CARTESIAN_POINT('',(-0.00427711489888448,-1.61783292925571E-19,0.00249278338104726));
#1620=CARTESIAN_POINT('',(-0.00302437694891523,-0.00302437694891523,0.00249278338104726));
#1621=CARTESIAN_POINT('',(-1.0842021724855E-18,-0.00427711489888448,0.00249278338104726));
#1622=CARTESIAN_POINT('',(0.00302437694891523,-0.00302437694891523,0.00249278338104726));
#1623=CARTESIAN_POINT('',(0.00427711489888448,-3.79470760369927E-19,0.00249278338104726));
#1624=CARTESIAN_POINT('',(0.00302437694891523,0.00302437694891523,0.00249278338104726));
#1625=CARTESIAN_POINT('',(0.0031344464995649,-0.00313444649956489,0.002));
#1626=CARTESIAN_POINT('',(0.00443277675021755,-3.79470760369927E-19,0.002));
#1627=CARTESIAN_POINT('',(0.0031344464995649,0.0031344464995649,0.002));
#1628=CARTESIAN_POINT('',(7.31836466427715E-19,0.00443277675021755,0.002));
#1629=CARTESIAN_POINT('',(-0.0031344464995649,0.0031344464995649,0.002));
#1630=CARTESIAN_POINT('',(-0.00443277675021755,1.6940658945086E-21,0.002));
#1631=CARTESIAN_POINT('',(-0.0031344464995649,-0.0031344464995649,0.002));
#1632=CARTESIAN_POINT('',(-1.84314369322536E-18,-0.00443277675021755,0.002));
#1633=CARTESIAN_POINT('',(0.0031344464995649,-0.00313444649956489,0.002));
#1634=CARTESIAN_POINT('',(0.00443277675021755,-3.79470760369927E-19,0.002));
#1635=CARTESIAN_POINT('',(0.0031344464995649,0.0031344464995649,0.002));
#1636=CARTESIAN_POINT('',(0.001015000000009,-0.000375000000002,0.003092772166481));
#1637=CARTESIAN_POINT('',(0.00140621519825972,-0.000375000000002,0.00308795009896178));
#1638=CARTESIAN_POINT('',(0.00181942045850641,-0.000375000000002,0.00308056103845558));
#1639=CARTESIAN_POINT('',(0.00222351452070091,-0.000375000000002,0.0030489132636861));
#1640=CARTESIAN_POINT('',(0.00222351452070091,-0.000375000000002,0.00304891326368609));
#1641=CARTESIAN_POINT('',(0.00101499999177016,-0.000375000000002001,0.00309277216658273));
#1642=CARTESIAN_POINT('',(0.00101499998353132,-0.000375000000002001,0.00309277216668447));
#1643=CARTESIAN_POINT('',(0.000676958693283054,-0.000375000008703226,0.0030969388194017));
#1644=CARTESIAN_POINT('',(0.000375000009045975,-0.00067695859141038,0.00309693882065175));
#1645=CARTESIAN_POINT('',(0.000375000000053008,-0.00101499998292798,0.00309277216669167));
#1646=CARTESIAN_POINT('',(0.000375000000053,-0.001014999999954,0.003092772166482));
#1647=CARTESIAN_POINT('',(0.000375000000053,-0.00222351469692012,0.00304891324922546));
#1648=CARTESIAN_POINT('',(0.000375000000053,-0.00181941313225027,0.00308056156741234));
#1649=CARTESIAN_POINT('',(0.000375000000053,-0.00140622823017476,0.00308794993832325));
#1650=CARTESIAN_POINT('',(0.000375000000053,-0.001014999999954,0.003092772166482));
#1651=CARTESIAN_POINT('',(0.000375000000053,-0.00222351467670889,0.00304891299115836));
#1652=CARTESIAN_POINT('',(0.,0.,0.00304891322451269));
#1653=CARTESIAN_POINT('',(-0.000374999999998,-0.00222351452070091,0.00304891326368529));
#1654=CARTESIAN_POINT('',(-0.000374999999998,-0.001015000000002,0.003092772166481));
#1655=CARTESIAN_POINT('',(-0.000374999999998,-0.00140621519825434,0.00308795009896192));
#1656=CARTESIAN_POINT('',(-0.000374999999998,-0.0018194204585059,0.00308056103846514));
#1657=CARTESIAN_POINT('',(-0.000374999999998,-0.00222351452070092,0.00304891326368529));
#1658=CARTESIAN_POINT('',(-0.000374999999998001,-0.00101499999176316,0.00309277216658279));
#1659=CARTESIAN_POINT('',(-0.000374999999998,-0.00101499998352432,0.00309277216668458));
#1660=CARTESIAN_POINT('',(-0.000375000008701338,-0.000676958693251273,0.00309693881940205));
#1661=CARTESIAN_POINT('',(-0.000676958591430772,-0.000375000008993413,0.00309693882065199));
#1662=CARTESIAN_POINT('',(-0.00101499998297315,-0.000375000000000007,0.00309277216669136));
#1663=CARTESIAN_POINT('',(-0.001015,-0.000375,0.003092772166481));
#1664=CARTESIAN_POINT('',(-0.00222351469699089,-0.000375,0.00304891325001674));
#1665=CARTESIAN_POINT('',(-0.0018194123553552,-0.000375,0.00308056165472861));
#1666=CARTESIAN_POINT('',(-0.00140622868047614,-0.000375,0.00308794993277672));
#1667=CARTESIAN_POINT('',(-0.001015,-0.000375,0.003092772166481));
#1668=CARTESIAN_POINT('',(-0.00222351467674895,-0.000375,0.00304891299155778));
#1669=CARTESIAN_POINT('',(0.,0.,0.00304891322452001));
#1670=CARTESIAN_POINT('',(-0.00222351452070091,0.000375,0.0030489132636902));
#1671=CARTESIAN_POINT('',(-0.001015,0.000375,0.003092772166481));
#1672=CARTESIAN_POINT('',(-0.00140621519825025,0.000375,0.00308795009896195));
#1673=CARTESIAN_POINT('',(-0.00181942045850444,0.000375,0.00308056103841171));
#1674=CARTESIAN_POINT('',(-0.00222351452070091,0.000375,0.0030489132636902));
#1675=CARTESIAN_POINT('',(-0.00101499999176116,0.000375,0.0030927721665828));
#1676=CARTESIAN_POINT('',(-0.00101499998352232,0.000375,0.00309277216668459));
#1677=CARTESIAN_POINT('',(-0.000676958693249,0.000375000008703338,0.00309693881940205));
#1678=CARTESIAN_POINT('',(-0.000375000008991333,0.000676958591434438,0.00309693882065198));
#1679=CARTESIAN_POINT('',(-0.000375000000000008,0.00101499998297709,0.00309277216669131));
#1680=CARTESIAN_POINT('',(-0.000375,0.001015,0.003092772166481));
#1681=CARTESIAN_POINT('',(-0.000375,0.00222351469698994,0.00304891325001984));
#1682=CARTESIAN_POINT('',(-0.000375,0.00181941235535464,0.00308056165470171));
#1683=CARTESIAN_POINT('',(-0.000375,0.001406228680475,0.00308794993277673));
#1684=CARTESIAN_POINT('',(-0.000375,0.001015,0.003092772166481));
#1685=CARTESIAN_POINT('',(-0.000375,0.00222351467674766,0.00304891299155643));
#1686=CARTESIAN_POINT('',(0.,0.,0.00304891322451429));
#1687=CARTESIAN_POINT('',(0.000375,0.00222351452070091,0.00304891326368719));
#1688=CARTESIAN_POINT('',(0.000375,0.001015,0.003092772166481));
#1689=CARTESIAN_POINT('',(0.000375,0.00140621519825018,0.00308795009896195));
#1690=CARTESIAN_POINT('',(0.000375,0.00181942045850629,0.00308056103844415));
#1691=CARTESIAN_POINT('',(0.000375,0.00222351452070091,0.0030489132636872));
#1692=CARTESIAN_POINT('',(0.000375,0.00101499999176116,0.0030927721665828));
#1693=CARTESIAN_POINT('',(0.000375,0.00101499998352232,0.00309277216668459));
#1694=CARTESIAN_POINT('',(0.000375000008699586,0.000677104406623238,0.00309693702335807));
#1695=CARTESIAN_POINT('',(0.000677104324272145,0.000375000008987767,0.00309693702436809));
#1696=CARTESIAN_POINT('',(0.00101499998297649,0.000375,0.00309277216669132));
#1697=CARTESIAN_POINT('',(0.001015,0.000375,0.003092772166481));
#1698=CARTESIAN_POINT('',(0.00222351469698998,0.000375,0.00304891325001984));
#1699=CARTESIAN_POINT('',(0.00181941235535466,0.000375,0.00308056165470171));
#1700=CARTESIAN_POINT('',(0.00140622868047427,0.000375,0.00308794993277674));
#1701=CARTESIAN_POINT('',(0.001015,0.000375,0.003092772166481));
#1702=CARTESIAN_POINT('',(0.0022235146767477,0.000375,0.00304891299155652));
#1703=CARTESIAN_POINT('',(0.,0.,0.00304891322451447));
#1704=CARTESIAN_POINT('',(0.,0.,0.00065));
#1705=CARTESIAN_POINT('',(0.00222351474958243,-0.000375000000002,0.00304891316016335));
#1706=CARTESIAN_POINT('',(0.00172561828614453,-0.000375000000002,0.00194809903057109));
#1707=CARTESIAN_POINT('',(0.00138575350881659,-0.000375000000002,0.00120651741686708));
#1708=CARTESIAN_POINT('',(0.001124099639711,-0.000375000000002,0.000649999999999227));
#1709=CARTESIAN_POINT('',(0.00112409963971102,-0.000375000000002,0.000649999999999614));
#1710=CARTESIAN_POINT('',(0.001124099639712,0.000375,0.000650000000000347));
#1711=CARTESIAN_POINT('',(0.00138575349555106,0.000375,0.00120651738865645));
#1712=CARTESIAN_POINT('',(0.00172561825207971,0.000375,0.00194809895594832));
#1713=CARTESIAN_POINT('',(0.00222351467385981,0.000375,0.00304891299286272));
#1714=CARTESIAN_POINT('',(0.00112409963971194,0.000375,0.000650000000000344));
#1715=CARTESIAN_POINT('',(0.,0.,0.00065));
#1716=CARTESIAN_POINT('',(0.0023,-0.000375000000002,0.00065));
#1717=CARTESIAN_POINT('',(0.001015000000009,-0.000375000000002,0.00065));
#1718=CARTESIAN_POINT('',(0.001015000000007,-0.000375000000002,0.000649999999999613));
#1719=CARTESIAN_POINT('',(0.0023,-0.000375000000002,0.000649999999999227));
#1720=CARTESIAN_POINT('',(0.001015000000005,-0.001014999999954,0.00065));
#1721=CARTESIAN_POINT('',(0.000375000000053,-0.001014999999954,0.00065));
#1722=CARTESIAN_POINT('',(0.000375000000053,-0.001014999999954,0.00065));
#1723=CARTESIAN_POINT('',(0.001015000000005,-0.001014999999954,0.00065));
#1724=CARTESIAN_POINT('',(0.000375000000053,-0.001014999999954,0.00065));
#1725=CARTESIAN_POINT('',(0.000375000000053,-0.001124099639694,0.000649999999998689));
#1726=CARTESIAN_POINT('',(0.000375000000053,-0.00138575349556226,0.00120651738870096));
#1727=CARTESIAN_POINT('',(0.000375000000053,-0.00172561825231202,0.00194809895845773));
#1728=CARTESIAN_POINT('',(0.000375000000053,-0.0022235146739457,0.00304891299240815));
#1729=CARTESIAN_POINT('',(0.000375000000053,-0.00112409963969376,0.000649999999998795));
#1730=CARTESIAN_POINT('',(0.000375000000053,-0.001014999999954,0.00065));
#1731=CARTESIAN_POINT('',(0.,0.,0.00065));
#1732=CARTESIAN_POINT('',(-0.000374999999998,-0.00222351474958244,0.00304891316016255));
#1733=CARTESIAN_POINT('',(-0.000374999999998,-0.00172561828614501,0.00194809903056761));
#1734=CARTESIAN_POINT('',(-0.000374999999998,-0.00138575350881736,0.00120651741686518));
#1735=CARTESIAN_POINT('',(-0.000374999999998,-0.001124099639712,0.000649999999998822));
#1736=CARTESIAN_POINT('',(-0.000374999999998,-0.00112409963971193,0.000649999999998862));
#1737=CARTESIAN_POINT('',(0.,0.,0.000649999999998902));
#1738=CARTESIAN_POINT('',(-0.000374999999998,-0.002300000000002,0.00065));
#1739=CARTESIAN_POINT('',(-0.000374999999998,-0.001015000000002,0.00065));
#1740=CARTESIAN_POINT('',(-0.000374999999998,-0.001015000000002,0.000649999999999411));
#1741=CARTESIAN_POINT('',(-0.000374999999998,-0.002300000000002,0.000649999999998822));
#1742=CARTESIAN_POINT('',(-0.001015,-0.001015000000002,0.00065));
#1743=CARTESIAN_POINT('',(-0.001015,-0.000375,0.00065));
#1744=CARTESIAN_POINT('',(-0.001015,-0.000375,0.00065));
#1745=CARTESIAN_POINT('',(-0.001015,-0.001015000000002,0.00065));
#1746=CARTESIAN_POINT('',(-0.001015,-0.000375,0.00065));
#1747=CARTESIAN_POINT('',(-0.001124099639712,-0.000375,0.000649999999998767));
#1748=CARTESIAN_POINT('',(-0.00138575349555137,-0.000375,0.00120651738864857));
#1749=CARTESIAN_POINT('',(-0.00172561825208053,-0.000375,0.00194809895593646));
#1750=CARTESIAN_POINT('',(-0.00222351467386163,-0.000375,0.00304891299286372));
#1751=CARTESIAN_POINT('',(-0.00112409963971163,-0.000375,0.000649999999998895));
#1752=CARTESIAN_POINT('',(-0.001015,-0.000375,0.00065));
#1753=CARTESIAN_POINT('',(0.,0.,0.00065));
#1754=CARTESIAN_POINT('',(0.,0.,0.000649999999999023));
#1755=CARTESIAN_POINT('',(-0.00112409963971163,0.000375,0.000650000000000475));
#1756=CARTESIAN_POINT('',(-0.00222351474958244,0.000375,0.00304891316016745));
#1757=CARTESIAN_POINT('',(-0.00172561828614508,0.000375,0.00194809903059063));
#1758=CARTESIAN_POINT('',(-0.00138575350881741,0.000375,0.00120651741688151));
#1759=CARTESIAN_POINT('',(-0.001124099639712,0.000375,0.000650000000001927));
#1760=CARTESIAN_POINT('',(-0.0023,0.000375,0.00065));
#1761=CARTESIAN_POINT('',(-0.001015,0.000375,0.00065));
#1762=CARTESIAN_POINT('',(-0.001015,0.000375,0.000650000000000963));
#1763=CARTESIAN_POINT('',(-0.0023,0.000375,0.000650000000001927));
#1764=CARTESIAN_POINT('',(-0.001015,0.001015,0.00065));
#1765=CARTESIAN_POINT('',(-0.000375,0.001015,0.00065));
#1766=CARTESIAN_POINT('',(-0.000375,0.001015,0.00065));
#1767=CARTESIAN_POINT('',(-0.001015,0.001015,0.00065));
#1768=CARTESIAN_POINT('',(-0.000375,0.001015,0.00065));
#1769=CARTESIAN_POINT('',(-0.000375,0.001124099639712,0.000650000000000347));
#1770=CARTESIAN_POINT('',(-0.000375,0.00138575349555105,0.00120651738865644));
#1771=CARTESIAN_POINT('',(-0.000375,0.00172561825207968,0.00194809895594827));
#1772=CARTESIAN_POINT('',(-0.000375,0.00222351467385977,0.00304891299286262));
#1773=CARTESIAN_POINT('',(-0.000375,0.00112409963971194,0.000650000000000344));
#1774=CARTESIAN_POINT('',(-0.000375,0.001015,0.00065));
#1775=CARTESIAN_POINT('',(0.,0.,0.00065));
#1776=CARTESIAN_POINT('',(0.,0.,0.00065000000000034));
#1777=CARTESIAN_POINT('',(0.000375,0.00112409963971194,0.000650000000000344));
#1778=CARTESIAN_POINT('',(0.000375,0.00222351474958243,0.00304891316016444));
#1779=CARTESIAN_POINT('',(0.000375,0.00172561828614508,0.0019480990305769));
#1780=CARTESIAN_POINT('',(0.000375,0.00138575350881741,0.00120651741687295));
#1781=CARTESIAN_POINT('',(0.000375,0.001124099639712,0.000650000000000347));
#1782=CARTESIAN_POINT('',(0.000375,0.0023,0.00065));
#1783=CARTESIAN_POINT('',(0.000375,0.001015,0.00065));
#1784=CARTESIAN_POINT('',(0.000375,0.001015,0.000650000000000173));
#1785=CARTESIAN_POINT('',(0.000375,0.0023,0.000650000000000347));
#1786=CARTESIAN_POINT('',(0.001015,0.001015,0.00065));
#1787=CARTESIAN_POINT('',(0.001015,0.000375,0.00065));
#1788=CARTESIAN_POINT('',(0.001015,0.000375,0.00065));
#1789=CARTESIAN_POINT('',(0.001015,0.001015,0.00065));
#1790=CARTESIAN_POINT('',(0.001015,0.000375,0.00065));
#1791=CARTESIAN_POINT('',(0.001015,0.000375,0.00065));
#1792=CARTESIAN_POINT('',(0.,0.,0.00065));
#1793=CARTESIAN_POINT('',(-0.0414246253811288,-0.0880710471272468,-0.0557388361096382));
#1794=CARTESIAN_POINT('',(0.035,0.,0.009));
#1795=CARTESIAN_POINT('',(0.035,0.,0.));
#1796=CARTESIAN_POINT('',(0.035,0.035,0.));
#1797=CARTESIAN_POINT('',(0.035,-0.035,0.));
#1798=CARTESIAN_POINT('',(0.035,0.035,0.009));
#1799=CARTESIAN_POINT('',(0.035,0.035,0.009));
#1800=CARTESIAN_POINT('',(0.035,0.,0.009));
#1801=CARTESIAN_POINT('',(0.035,-0.035,0.009));
#1802=CARTESIAN_POINT('',(0.035,-0.035,0.009));
#1803=CARTESIAN_POINT('',(0.,0.035,0.009));
#1804=CARTESIAN_POINT('',(0.,0.035,0.));
#1805=CARTESIAN_POINT('',(-0.035,0.035,0.));
#1806=CARTESIAN_POINT('',(-0.035,0.035,0.009));
#1807=CARTESIAN_POINT('',(-0.035,0.035,0.009));
#1808=CARTESIAN_POINT('',(0.,0.035,0.009));
#1809=CARTESIAN_POINT('',(-0.035,0.,0.009));
#1810=CARTESIAN_POINT('',(-0.035,0.,0.));
#1811=CARTESIAN_POINT('',(-0.035,-0.035,0.));
#1812=CARTESIAN_POINT('',(-0.035,-0.035,0.009));
#1813=CARTESIAN_POINT('',(-0.035,-0.035,0.009));
#1814=CARTESIAN_POINT('',(-0.035,0.,0.009));
#1815=CARTESIAN_POINT('',(0.,-0.035,0.009));
#1816=CARTESIAN_POINT('',(0.,-0.035,0.));
#1817=CARTESIAN_POINT('',(0.,-0.035,0.009));
#1818=CARTESIAN_POINT('',(0.,0.,0.009));
#1819=CARTESIAN_POINT('',(0.,0.,0.));
#1820=CARTESIAN_POINT('',(-0.000424625381128842,-0.0445710471272468,-0.0537388361096382));
#1821=CARTESIAN_POINT('',(6.93889390390723E-18,0.0375,0.017));
#1822=CARTESIAN_POINT('',(6.93889390390723E-18,0.0375,0.002));
#1823=CARTESIAN_POINT('',(0.0375,0.0375,0.002));
#1824=CARTESIAN_POINT('',(-0.0375,0.0375,0.002));
#1825=CARTESIAN_POINT('',(-0.0375,0.0375,0.017));
#1826=CARTESIAN_POINT('',(-0.0375,0.0375,0.017));
#1827=CARTESIAN_POINT('',(6.93889390390723E-18,0.0375,0.017));
#1828=CARTESIAN_POINT('',(0.0375,0.0375,0.017));
#1829=CARTESIAN_POINT('',(0.0375,0.0375,0.017));
#1830=CARTESIAN_POINT('',(-0.035,0.0375,0.0085));
#1831=CARTESIAN_POINT('',(-0.035,0.0375,0.013));
#1832=CARTESIAN_POINT('',(-0.035,0.0375,0.004));
#1833=CARTESIAN_POINT('',(0.,0.0375,0.004));
#1834=CARTESIAN_POINT('',(0.035,0.0375,0.004));
#1835=CARTESIAN_POINT('',(0.035,0.0375,0.0085));
#1836=CARTESIAN_POINT('',(0.035,0.0375,0.013));
#1837=CARTESIAN_POINT('',(0.,0.0375,0.013));
#1838=CARTESIAN_POINT('',(0.,0.,0.002));
#1839=CARTESIAN_POINT('',(0.041,0.041,0.002));
#1840=CARTESIAN_POINT('',(0.04325,0.041,0.002));
#1841=CARTESIAN_POINT('',(-0.041,-0.041,0.002));
#1842=CARTESIAN_POINT('',(-0.03875,-0.041,0.002));
#1843=CARTESIAN_POINT('',(0.041,-0.041,0.002));
#1844=CARTESIAN_POINT('',(0.04325,-0.041,0.002));
#1845=CARTESIAN_POINT('',(-0.041,0.041,0.002));
#1846=CARTESIAN_POINT('',(-0.03875,0.041,0.002));
#1847=CARTESIAN_POINT('',(0.045,0.,0.002));
#1848=CARTESIAN_POINT('',(0.045,0.045,0.002));
#1849=CARTESIAN_POINT('',(0.045,-0.045,0.002));
#1850=CARTESIAN_POINT('',(0.,0.045,0.002));
#1851=CARTESIAN_POINT('',(-0.045,0.045,0.002));
#1852=CARTESIAN_POINT('',(-0.045,0.,0.002));
#1853=CARTESIAN_POINT('',(-0.045,-0.045,0.002));
#1854=CARTESIAN_POINT('',(0.,-0.045,0.002));
#1855=CARTESIAN_POINT('',(0.0375,0.,0.002));
#1856=CARTESIAN_POINT('',(0.0375,-0.0375,0.002));
#1857=CARTESIAN_POINT('',(0.,-0.0375,0.002));
#1858=CARTESIAN_POINT('',(-0.0375,-0.0375,0.002));
#1859=CARTESIAN_POINT('',(-0.0375,0.,0.002));
#1860=CARTESIAN_POINT('',(0.045,0.,0.002));
#1861=CARTESIAN_POINT('',(0.045,0.,0.));
#1862=CARTESIAN_POINT('',(0.045,0.045,0.));
#1863=CARTESIAN_POINT('',(0.045,-0.045,0.));
#1864=CARTESIAN_POINT('',(0.045,0.045,0.002));
#1865=CARTESIAN_POINT('',(0.045,-0.045,0.002));
#1866=CARTESIAN_POINT('',(0.,0.045,0.002));
#1867=CARTESIAN_POINT('',(0.,0.045,0.));
#1868=CARTESIAN_POINT('',(-0.045,0.045,0.));
#1869=CARTESIAN_POINT('',(-0.045,0.045,0.002));
#1870=CARTESIAN_POINT('',(-0.045,0.,0.002));
#1871=CARTESIAN_POINT('',(-0.045,0.,0.));
#1872=CARTESIAN_POINT('',(-0.045,-0.045,0.));
#1873=CARTESIAN_POINT('',(-0.045,-0.045,0.002));
#1874=CARTESIAN_POINT('',(0.,-0.045,0.002));
#1875=CARTESIAN_POINT('',(0.,-0.045,0.));
#1876=CARTESIAN_POINT('',(0.,0.,0.));
#1877=CARTESIAN_POINT('',(0.,-1.99005104861445E-18,0.));
#1878=CARTESIAN_POINT('',(-0.0325,-1.99005104861445E-18,0.));
#1879=CARTESIAN_POINT('',(0.041,0.041,0.));
#1880=CARTESIAN_POINT('',(0.04325,0.041,0.));
#1881=CARTESIAN_POINT('',(-0.041,-0.041,0.));
#1882=CARTESIAN_POINT('',(-0.03875,-0.041,0.));
#1883=CARTESIAN_POINT('',(0.041,-0.041,0.));
#1884=CARTESIAN_POINT('',(0.04325,-0.041,0.));
#1885=CARTESIAN_POINT('',(-0.041,0.041,0.));
#1886=CARTESIAN_POINT('',(-0.03875,0.041,0.));
#1887=CARTESIAN_POINT('',(-0.041,0.041,-0.023));
#1888=CARTESIAN_POINT('',(0.041,-0.041,-0.023));
#1889=CARTESIAN_POINT('',(-0.041,-0.041,-0.023));
#1890=CARTESIAN_POINT('',(0.041,0.041,-0.023));
#1891=CARTESIAN_POINT('',(0.0375,0.,0.017));
#1892=CARTESIAN_POINT('',(0.0375,0.,0.017));
#1893=CARTESIAN_POINT('',(0.0375,-0.0375,0.017));
#1894=CARTESIAN_POINT('',(0.0375,-0.0375,0.017));
#1895=CARTESIAN_POINT('',(-0.0375,0.,0.017));
#1896=CARTESIAN_POINT('',(-0.0375,-0.0375,0.017));
#1897=CARTESIAN_POINT('',(-0.0375,-0.0375,0.017));
#1898=CARTESIAN_POINT('',(-0.0375,0.,0.017));
#1899=CARTESIAN_POINT('',(0.,-0.0375,0.017));
#1900=CARTESIAN_POINT('',(0.,-0.0375,0.017));
#1901=CARTESIAN_POINT('',(0.,0.,0.017));
#1902=CARTESIAN_POINT('',(0.,-1.99005104861445E-18,0.017));
#1903=CARTESIAN_POINT('',(0.0325,-1.99005104861445E-18,0.017));
#1904=CARTESIAN_POINT('',(-0.035,-0.0325,0.0085));
#1905=CARTESIAN_POINT('',(-0.035,-0.0325,0.013));
#1906=CARTESIAN_POINT('',(-0.035,-0.0325,0.013));
#1907=CARTESIAN_POINT('',(-0.035,-0.0325,0.0085));
#1908=CARTESIAN_POINT('',(-0.035,-0.0325,0.004));
#1909=CARTESIAN_POINT('',(-0.035,-0.0325,0.004));
#1910=CARTESIAN_POINT('',(0.,-0.0325,0.013));
#1911=CARTESIAN_POINT('',(0.,-0.0325,0.013));
#1912=CARTESIAN_POINT('',(0.,-0.0325,0.013));
#1913=CARTESIAN_POINT('',(0.035,-0.0325,0.013));
#1914=CARTESIAN_POINT('',(0.,-1.99005104861445E-18,0.013));
#1915=CARTESIAN_POINT('',(0.,-0.0325,0.013));
#1916=CARTESIAN_POINT('',(0.035,-0.0325,0.013));
#1917=CARTESIAN_POINT('',(0.035,-0.0325,0.0085));
#1918=CARTESIAN_POINT('',(0.035,-0.0325,0.004));
#1919=CARTESIAN_POINT('',(0.035,-0.0325,0.004));
#1920=CARTESIAN_POINT('',(0.035,-0.0325,0.0085));
#1921=CARTESIAN_POINT('',(0.,-0.0325,0.004));
#1922=CARTESIAN_POINT('',(0.,-0.0325,0.004));
#1923=CARTESIAN_POINT('',(0.,-0.0325,0.004));
#1924=CARTESIAN_POINT('',(0.,-1.99005104861445E-18,0.004));
#1925=CARTESIAN_POINT('',(0.,-0.0325,0.004));
#1926=CARTESIAN_POINT('',(0.,-0.0325,0.0095));
#1927=CARTESIAN_POINT('',(0.,-1.99005104861445E-18,0.025));
#1928=CARTESIAN_POINT('',(0.,-1.99005104861445E-18,0.025));
#1929=CARTESIAN_POINT('',(-0.000424625381128848,-0.0470710471272468,-0.0577388361096382));
#1930=CARTESIAN_POINT('',(0.0405753746188711,-0.00607104712724685,-0.0557388361096382));
#1931=CARTESIAN_POINT('',(0.0405753746188711,-0.0880710471272468,-0.0557388361096382));
#1932=CARTESIAN_POINT('',(-0.0414246253811288,-0.00607104712724685,-0.0557388361096382));
#1933=MECHANICAL_DESIGN_GEOMETRIC_PRESENTATION_REPRESENTATION('',(#1080,
#1081,#1082,#1083),#1934);
#1934=(
GEOMETRIC_REPRESENTATION_CONTEXT(3)
GLOBAL_UNCERTAINTY_ASSIGNED_CONTEXT((#1939))
GLOBAL_UNIT_ASSIGNED_CONTEXT((#1946,#1945,#1944))
REPRESENTATION_CONTEXT('full assembly','TOP_LEVEL_ASSEMBLY_PART')
);
#1935=(
GEOMETRIC_REPRESENTATION_CONTEXT(3)
GLOBAL_UNCERTAINTY_ASSIGNED_CONTEXT((#1940))
GLOBAL_UNIT_ASSIGNED_CONTEXT((#1946,#1945,#1944))
REPRESENTATION_CONTEXT('Part 1','COMPONENT_PART')
);
#1936=(
GEOMETRIC_REPRESENTATION_CONTEXT(3)
GLOBAL_UNCERTAINTY_ASSIGNED_CONTEXT((#1941))
GLOBAL_UNIT_ASSIGNED_CONTEXT((#1946,#1945,#1944))
REPRESENTATION_CONTEXT('Part 1','COMPONENT_PART')
);
#1937=(
GEOMETRIC_REPRESENTATION_CONTEXT(3)
GLOBAL_UNCERTAINTY_ASSIGNED_CONTEXT((#1942))
GLOBAL_UNIT_ASSIGNED_CONTEXT((#1946,#1945,#1944))
REPRESENTATION_CONTEXT('Part 1','COMPONENT_PART')
);
#1938=(
GEOMETRIC_REPRESENTATION_CONTEXT(3)
GLOBAL_UNCERTAINTY_ASSIGNED_CONTEXT((#1943))
GLOBAL_UNIT_ASSIGNED_CONTEXT((#1946,#1945,#1944))
REPRESENTATION_CONTEXT('Part 1','COMPONENT_PART')
);
#1939=UNCERTAINTY_MEASURE_WITH_UNIT(LENGTH_MEASURE(1.E-8),#1946,
'DISTANCE_ACCURACY_VALUE','Maximum Tolerance applied to model');
#1940=UNCERTAINTY_MEASURE_WITH_UNIT(LENGTH_MEASURE(1.E-8),#1946,
'DISTANCE_ACCURACY_VALUE','Maximum Tolerance applied to model');
#1941=UNCERTAINTY_MEASURE_WITH_UNIT(LENGTH_MEASURE(2.E-5),#1946,
'DISTANCE_ACCURACY_VALUE','Maximum Tolerance applied to model');
#1942=UNCERTAINTY_MEASURE_WITH_UNIT(LENGTH_MEASURE(1.E-8),#1946,
'DISTANCE_ACCURACY_VALUE','Maximum Tolerance applied to model');
#1943=UNCERTAINTY_MEASURE_WITH_UNIT(LENGTH_MEASURE(1.E-8),#1946,
'DISTANCE_ACCURACY_VALUE','Maximum Tolerance applied to model');
#1944=(
NAMED_UNIT(*)
SI_UNIT($,.STERADIAN.)
SOLID_ANGLE_UNIT()
);
#1945=(
NAMED_UNIT(*)
PLANE_ANGLE_UNIT()
SI_UNIT($,.RADIAN.)
);
#1946=(
LENGTH_UNIT()
NAMED_UNIT(*)
SI_UNIT($,.METRE.)
);
#1947=PRODUCT_DEFINITION_SHAPE('','',#1959);
#1948=PRODUCT_DEFINITION_SHAPE('','',#1960);
#1949=PRODUCT_DEFINITION_SHAPE(' ','NAUO PRDDFN',#44);
#1950=PRODUCT_DEFINITION_SHAPE('','',#1961);
#1951=PRODUCT_DEFINITION_SHAPE(' ','NAUO PRDDFN',#45);
#1952=PRODUCT_DEFINITION_SHAPE('','',#1962);
#1953=PRODUCT_DEFINITION_SHAPE(' ','NAUO PRDDFN',#46);
#1954=PRODUCT_DEFINITION_SHAPE('','',#1963);
#1955=PRODUCT_DEFINITION_SHAPE(' ','NAUO PRDDFN',#47);
#1956=PRODUCT_DEFINITION_SHAPE(' ','NAUO PRDDFN',#48);
#1957=PRODUCT_DEFINITION_SHAPE(' ','NAUO PRDDFN',#49);
#1958=PRODUCT_DEFINITION_SHAPE(' ','NAUO PRDDFN',#50);
#1959=PRODUCT_DEFINITION('','',#1969,#1964);
#1960=PRODUCT_DEFINITION('','',#1970,#1965);
#1961=PRODUCT_DEFINITION('','',#1971,#1966);
#1962=PRODUCT_DEFINITION('','',#1972,#1967);
#1963=PRODUCT_DEFINITION('','',#1973,#1968);
#1964=PRODUCT_DEFINITION_CONTEXT('',#1995,'design');
#1965=PRODUCT_DEFINITION_CONTEXT('',#1995,'design');
#1966=PRODUCT_DEFINITION_CONTEXT('',#1995,'design');
#1967=PRODUCT_DEFINITION_CONTEXT('',#1995,'design');
#1968=PRODUCT_DEFINITION_CONTEXT('',#1995,'design');
#1969=PRODUCT_DEFINITION_FORMATION_WITH_SPECIFIED_SOURCE('','',#1979,
 .NOT_KNOWN.);
#1970=PRODUCT_DEFINITION_FORMATION_WITH_SPECIFIED_SOURCE('','',#1980,
 .NOT_KNOWN.);
#1971=PRODUCT_DEFINITION_FORMATION_WITH_SPECIFIED_SOURCE('','',#1981,
 .NOT_KNOWN.);
#1972=PRODUCT_DEFINITION_FORMATION_WITH_SPECIFIED_SOURCE('','',#1982,
 .NOT_KNOWN.);
#1973=PRODUCT_DEFINITION_FORMATION_WITH_SPECIFIED_SOURCE('','',#1983,
 .NOT_KNOWN.);
#1974=PRODUCT_RELATED_PRODUCT_CATEGORY('','',(#1979));
#1975=PRODUCT_RELATED_PRODUCT_CATEGORY('','',(#1980));
#1976=PRODUCT_RELATED_PRODUCT_CATEGORY('','',(#1981));
#1977=PRODUCT_RELATED_PRODUCT_CATEGORY('','',(#1982));
#1978=PRODUCT_RELATED_PRODUCT_CATEGORY('','',(#1983));
#1979=PRODUCT('full assembly','full assembly','full assembly',(#1989));
#1980=PRODUCT('Part 1','Part 1','Part 1',(#1990));
#1981=PRODUCT('Part 1','Part 1','Part 1',(#1991));
#1982=PRODUCT('Part 1','Part 1','Part 1',(#1992));
#1983=PRODUCT('Part 1','Part 1','Part 1',(#1993));
#1984=PRODUCT_CATEGORY('','');
#1985=PRODUCT_CATEGORY('','');
#1986=PRODUCT_CATEGORY('','');
#1987=PRODUCT_CATEGORY('','');
#1988=PRODUCT_CATEGORY('','');
#1989=PRODUCT_CONTEXT('',#1995,'mechanical');
#1990=PRODUCT_CONTEXT('',#1995,'mechanical');
#1991=PRODUCT_CONTEXT('',#1995,'mechanical');
#1992=PRODUCT_CONTEXT('',#1995,'mechanical');
#1993=PRODUCT_CONTEXT('',#1995,'mechanical');
#1994=APPLICATION_PROTOCOL_DEFINITION('international standard',
'ap242_managed_model_based_3d_engineering',2020,#1995);
#1995=APPLICATION_CONTEXT('managed model based 3d engineering');
ENDSEC;
END-ISO-10303-21;
